<?xml version="1.0" encoding="utf-8" standalone="no"?>
<!DOCTYPE svg PUBLIC "-//W3C//DTD SVG 1.1//EN"
  "http://www.w3.org/Graphics/SVG/1.1/DTD/svg11.dtd">
<svg xmlns:xlink="http://www.w3.org/1999/xlink" width="144pt" height="144pt" viewBox="0 0 144 144" xmlns="http://www.w3.org/2000/svg" version="1.1">
 <metadata>
  <rdf:RDF xmlns:dc="http://purl.org/dc/elements/1.1/" xmlns:cc="http://creativecommons.org/ns#" xmlns:rdf="http://www.w3.org/1999/02/22-rdf-syntax-ns#">
   <cc:Work>
    <dc:type rdf:resource="http://purl.org/dc/dcmitype/StillImage"/>
    <dc:date>2023-08-08T00:50:07.493052</dc:date>
    <dc:format>image/svg+xml</dc:format>
    <dc:creator>
     <cc:Agent>
      <dc:title>Matplotlib v3.7.1, https://matplotlib.org/</dc:title>
     </cc:Agent>
    </dc:creator>
   </cc:Work>
  </rdf:RDF>
 </metadata>
 <defs>
  <style type="text/css">*{stroke-linejoin: round; stroke-linecap: butt}</style>
 </defs>
 <g id="figure_1">
  <g id="patch_1">
   <path d="M 0 144 
L 144 144 
L 144 0 
L 0 0 
L 0 144 
z
" style="fill: none"/>
  </g>
  <g id="axes_1">
   <g id="PathCollection_1">
    <path d="M 1.454545 144 
L 2.909091 144 
L 4.363636 144 
L 5.818182 144 
L 7.272727 144 
L 8.727273 144 
L 10.181818 144 
L 11.636364 144 
L 13.090909 144 
L 14.545455 144 
L 16 144 
L 17.454545 144 
L 18.909091 144 
L 20.363636 144 
L 21.818182 144 
L 23.272727 144 
L 24.727273 144 
L 26.181818 144 
L 27.636364 144 
L 29.090909 144 
L 30.545455 144 
L 32 144 
L 33.454545 144 
L 34.909091 144 
L 36.363636 144 
L 37.818182 144 
L 39.272727 144 
L 40.727273 144 
L 42.181818 144 
L 43.636364 144 
L 45.090909 144 
L 46.545455 144 
L 48 144 
L 49.454545 144 
L 50.909091 144 
L 52.363636 144 
L 53.818182 144 
L 55.272727 144 
L 56.727273 144 
L 58.12581 144 
L 58.13965 142.545455 
L 58.176206 141.090909 
L 58.181818 140.912575 
L 58.221024 139.636364 
L 58.253467 138.181818 
L 58.250617 136.727273 
L 58.191835 135.272727 
L 58.181818 135.164508 
L 58.058376 133.818182 
L 57.843993 132.363636 
L 57.5525 130.909091 
L 57.197 129.454545 
L 56.797654 128 
L 56.727273 127.767733 
L 56.349935 126.545455 
L 55.898646 125.090909 
L 55.474031 123.636364 
L 55.272727 122.879234 
L 55.078439 122.181818 
L 54.730577 120.727273 
L 54.463488 119.272727 
L 54.285038 117.818182 
L 54.199432 116.363636 
L 54.208163 114.909091 
L 54.310753 113.454545 
L 54.505223 112 
L 54.788302 110.545455 
L 55.155363 109.090909 
L 55.272727 108.699213 
L 55.558472 107.636364 
L 56.002413 106.181818 
L 56.49067 104.727273 
L 56.727273 104.050171 
L 56.972911 103.272727 
L 57.43452 101.818182 
L 57.893265 100.363636 
L 58.181818 99.404937 
L 58.317415 98.909091 
L 58.682982 97.454545 
L 59.027079 96 
L 59.355896 94.545455 
L 59.636364 93.290534 
L 59.677307 93.090909 
L 59.980946 91.636364 
L 60.329248 90.181818 
L 60.754795 88.727273 
L 61.090909 87.801152 
L 61.271304 87.272727 
L 61.886558 85.818182 
L 62.545455 84.59258 
L 62.663746 84.363636 
L 63.56139 82.909091 
L 64 82.309699 
L 64.614113 81.454545 
L 65.454545 80.434135 
L 65.81004 80 
L 66.909091 78.778537 
L 67.120148 78.545455 
L 68.363636 77.241901 
L 68.510327 77.090909 
L 69.818182 75.757178 
L 69.940367 75.636364 
L 71.272727 74.270845 
L 71.363615 74.181818 
L 72.725664 72.727273 
L 72.727273 72.72518 
L 73.940466 71.272727 
L 74.181818 70.880957 
L 74.915645 69.818182 
L 75.459504 68.363636 
L 74.904427 66.909091 
L 74.181818 66.552594 
L 72.727273 66.163637 
L 71.272727 66.000985 
L 69.818182 65.968614 
L 68.363636 66.018295 
L 66.909091 66.122904 
L 65.454545 66.265832 
L 64 66.436205 
L 62.545455 66.626513 
L 61.090909 66.831345 
L 60.579186 66.909091 
L 59.636364 67.07744 
L 58.181818 67.342941 
L 56.727273 67.606934 
L 55.272727 67.868033 
L 53.818182 68.125159 
L 52.444828 68.363636 
L 52.363636 68.380054 
L 50.909091 68.668626 
L 49.454545 68.943043 
L 48 69.203779 
L 46.545455 69.451202 
L 45.090909 69.685575 
L 44.218738 69.818182 
L 43.636364 69.919152 
L 42.181818 70.152208 
L 40.727273 70.365562 
L 39.272727 70.559637 
L 37.818182 70.73456 
L 36.363636 70.890164 
L 34.909091 71.026 
L 33.454545 71.141341 
L 32 71.235191 
L 31.218717 71.272727 
L 30.545455 71.308304 
L 29.090909 71.357111 
L 27.636364 71.377928 
L 26.181818 71.369529 
L 24.727273 71.33055 
L 23.532043 71.272727 
L 23.272727 71.259659 
L 21.818182 71.154871 
L 20.363636 71.012623 
L 18.909091 70.83052 
L 17.454545 70.606469 
L 16 70.338994 
L 14.545455 70.027697 
L 13.656469 69.818182 
L 13.090909 69.656021 
L 11.636364 69.204613 
L 10.181818 68.700706 
L 9.251032 68.363636 
L 8.727273 68.095998 
L 7.272727 67.338282 
L 6.442987 66.909091 
L 5.818182 66.307343 
L 4.874521 65.454545 
L 4.598779 64 
L 5.279262 62.545455 
L 5.818182 61.99966 
L 6.462813 61.090909 
L 7.272727 60.31857 
L 7.824823 59.636364 
L 8.727273 58.781074 
L 9.241233 58.181818 
L 10.181818 57.282881 
L 10.673682 56.727273 
L 11.636364 55.79944 
L 12.113919 55.272727 
L 13.090909 54.329095 
L 13.565775 53.818182 
L 14.545455 52.878622 
L 15.038785 52.363636 
L 16 51.457804 
L 16.545981 50.909091 
L 17.454545 50.076779 
L 18.103405 49.454545 
L 18.909091 48.744597 
L 19.730446 48 
L 20.363636 47.46857 
L 21.450694 46.545455 
L 21.818182 46.254274 
L 23.272727 45.106008 
L 23.29163 45.090909 
L 24.727273 44.018944 
L 25.25009 43.636364 
L 26.181818 42.991622 
L 27.394651 42.181818 
L 27.636364 42.027153 
L 29.090909 41.110933 
L 29.722272 40.727273 
L 30.545455 40.24216 
L 32 39.425038 
L 32.27549 39.272727 
L 33.454545 38.630693 
L 34.909091 37.888582 
L 35.048004 37.818182 
L 36.363636 37.149451 
L 37.818182 36.459132 
L 38.020907 36.363636 
L 39.272727 35.760364 
L 40.727273 35.101105 
L 41.157911 34.909091 
L 42.181818 34.432485 
L 43.636364 33.78682 
L 44.408756 33.454545 
L 45.090909 33.142253 
L 46.545455 32.496674 
L 47.723378 32 
L 48 31.873791 
L 49.454545 31.219723 
L 50.909091 30.609286 
L 51.062188 30.545455 
L 52.363636 29.9551 
L 53.818182 29.340186 
L 54.428691 29.090909 
L 55.272727 28.713501 
L 56.727273 28.099418 
L 57.904833 27.636364 
L 58.181818 27.516774 
L 59.636364 26.91177 
L 61.090909 26.361913 
L 61.589608 26.181818 
L 62.545455 25.805391 
L 64 25.275653 
L 65.454545 24.794735 
L 65.666247 24.727273 
L 66.909091 24.296295 
L 68.363636 23.835839 
L 69.818182 23.416019 
L 70.339688 23.272727 
L 71.272727 22.991978 
L 72.727273 22.583941 
L 74.181818 22.208662 
L 75.636364 21.860342 
L 75.818028 21.818182 
L 77.090909 21.490358 
L 78.545455 21.140154 
L 80 20.812028 
L 81.454545 20.502176 
L 82.129064 20.363636 
L 82.909091 20.182024 
L 84.363636 19.85761 
L 85.818182 19.54967 
L 87.272727 19.2557 
L 88.727273 18.973627 
L 89.070594 18.909091 
L 90.181818 18.667697 
L 91.636364 18.365917 
L 93.090909 18.077902 
L 94.545455 17.802372 
L 96 17.538336 
L 96.483697 17.454545 
L 97.454545 17.258496 
L 98.909091 16.982182 
L 100.363636 16.722769 
L 101.818182 16.479782 
L 103.272727 16.252993 
L 104.727273 16.042404 
L 105.050975 16 
L 106.181818 15.830172 
L 107.636364 15.636099 
L 109.090909 15.465788 
L 110.545455 15.31949 
L 112 15.197713 
L 113.454545 15.101222 
L 114.909091 15.031039 
L 116.363636 14.988438 
L 117.818182 14.974937 
L 119.272727 14.992282 
L 120.727273 15.042412 
L 122.181818 15.127401 
L 123.636364 15.249353 
L 125.090909 15.410251 
L 126.545455 15.611717 
L 128 15.85467 
L 128.769078 16 
L 129.454545 16.152496 
L 130.909091 16.515986 
L 132.363636 16.931065 
L 133.818182 17.391117 
L 134.019056 17.454545 
L 135.272727 17.999 
L 136.727273 18.671312 
L 137.262621 18.909091 
L 138.181818 19.622931 
L 139.185784 20.363636 
L 139.636364 21.678694 
L 139.693367 21.818182 
L 139.636364 21.912182 
L 139.109562 23.272727 
L 138.181818 24.298208 
L 137.905858 24.727273 
L 136.727273 25.933814 
L 136.542542 26.181818 
L 135.272727 27.484413 
L 135.153873 27.636364 
L 133.818182 29.040531 
L 133.778174 29.090909 
L 132.427301 30.545455 
L 132.363636 30.606478 
L 131.089853 32 
L 130.909091 32.178496 
L 129.745618 33.454545 
L 129.454545 33.744725 
L 128.377616 34.909091 
L 128 35.281837 
L 126.96774 36.363636 
L 126.545455 36.769426 
L 125.497533 37.818182 
L 125.090909 38.19362 
L 123.948997 39.272727 
L 123.636364 39.547789 
L 122.305832 40.727273 
L 122.181818 40.830939 
L 120.727273 42.049039 
L 120.568523 42.181818 
L 119.272727 43.215995 
L 118.736118 43.636364 
L 117.818182 44.33772 
L 116.804229 45.090909 
L 116.363636 45.418441 
L 114.909091 46.468131 
L 114.800598 46.545455 
L 113.454545 47.531777 
L 112.787986 48 
L 112 48.58932 
L 110.786851 49.454545 
L 110.545455 49.64572 
L 109.090909 50.753342 
L 108.877723 50.909091 
L 107.636364 51.960168 
L 107.128191 52.363636 
L 106.181818 53.294369 
L 105.607355 53.818182 
L 104.727273 54.919114 
L 104.417367 55.272727 
L 103.707334 56.727273 
L 103.67618 58.181818 
L 104.516751 59.636364 
L 104.727273 59.820386 
L 106.153349 61.090909 
L 106.181818 61.109808 
L 107.636364 62.156153 
L 108.130689 62.545455 
L 109.090909 63.23556 
L 110.034913 64 
L 110.545455 64.417206 
L 111.671129 65.454545 
L 112 65.785421 
L 113.00702 66.909091 
L 113.454545 67.493814 
L 114.070596 68.363636 
L 114.89354 69.818182 
L 114.909091 69.851918 
L 115.541757 71.272727 
L 116.025494 72.727273 
L 116.363636 74.103553 
L 116.383078 74.181818 
L 116.6653 75.636364 
L 116.87434 77.090909 
L 117.031466 78.545455 
L 117.153086 80 
L 117.251092 81.454545 
L 117.333193 82.909091 
L 117.403278 84.363636 
L 117.461862 85.818182 
L 117.506617 87.272727 
L 117.532961 88.727273 
L 117.534644 90.181818 
L 117.504298 91.636364 
L 117.433879 93.090909 
L 117.314995 94.545455 
L 117.139107 96 
L 116.897622 97.454545 
L 116.581909 98.909091 
L 116.363636 99.717614 
L 116.206756 100.363636 
L 115.782275 101.818182 
L 115.27412 103.272727 
L 114.909091 104.177946 
L 114.706056 104.727273 
L 114.104815 106.181818 
L 113.454545 107.568657 
L 113.425052 107.636364 
L 112.754404 109.090909 
L 112.012106 110.545455 
L 112 110.568648 
L 111.29623 112 
L 110.545455 113.411266 
L 110.523529 113.454545 
L 109.7834 114.909091 
L 109.090909 116.184816 
L 108.997256 116.363636 
L 108.230806 117.818182 
L 107.636364 118.881113 
L 107.422008 119.272727 
L 106.601503 120.727273 
L 106.181818 121.429751 
L 105.735357 122.181818 
L 104.803476 123.636364 
L 104.727273 123.750515 
L 103.825404 125.090909 
L 103.272727 125.845412 
L 102.750358 126.545455 
L 101.818182 127.707327 
L 101.576826 128 
L 100.363636 129.39228 
L 100.307492 129.454545 
L 98.955808 130.909091 
L 98.909091 130.958546 
L 97.54103 132.363636 
L 97.454545 132.453331 
L 96.100547 133.818182 
L 96 133.924161 
L 94.688945 135.272727 
L 94.545455 135.43351 
L 93.368349 136.727273 
L 93.090909 137.076554 
L 92.199943 138.181818 
L 91.636364 139.037646 
L 91.23711 139.636364 
L 90.524989 141.090909 
L 90.181818 142.232421 
L 90.087156 142.545455 
L 89.939954 144 
L 90.181818 144 
L 91.636364 144 
L 93.090909 144 
L 94.545455 144 
L 96 144 
L 97.454545 144 
L 98.909091 144 
L 100.363636 144 
L 101.818182 144 
L 103.272727 144 
L 104.727273 144 
L 106.181818 144 
L 107.636364 144 
L 109.090909 144 
L 110.545455 144 
L 112 144 
L 113.454545 144 
L 114.909091 144 
L 116.363636 144 
L 117.818182 144 
L 119.272727 144 
L 120.727273 144 
L 122.181818 144 
L 123.636364 144 
L 125.090909 144 
L 126.545455 144 
L 128 144 
L 129.454545 144 
L 130.909091 144 
L 132.363636 144 
L 133.818182 144 
L 135.272727 144 
L 136.727273 144 
L 138.181818 144 
L 139.636364 144 
L 141.090909 144 
L 142.545455 144 
L 144 144 
L 144 142.545455 
L 144 141.090909 
L 144 139.636364 
L 144 138.181818 
L 144 136.727273 
L 144 135.272727 
L 144 133.818182 
L 144 132.363636 
L 144 130.909091 
L 144 129.454545 
L 144 128 
L 144 126.545455 
L 144 125.090909 
L 144 123.636364 
L 144 122.181818 
L 144 120.727273 
L 144 119.272727 
L 144 117.818182 
L 144 116.363636 
L 144 114.909091 
L 144 113.454545 
L 144 112 
L 144 110.545455 
L 144 109.090909 
L 144 107.636364 
L 144 106.181818 
L 144 104.727273 
L 144 103.272727 
L 144 101.818182 
L 144 100.363636 
L 144 98.909091 
L 144 97.454545 
L 144 96 
L 144 94.545455 
L 144 93.090909 
L 144 91.636364 
L 144 90.181818 
L 144 88.727273 
L 144 87.272727 
L 144 85.818182 
L 144 84.363636 
L 144 82.909091 
L 144 81.454545 
L 144 80 
L 144 78.545455 
L 144 77.090909 
L 144 75.636364 
L 144 74.181818 
L 144 72.727273 
L 144 71.272727 
L 144 69.818182 
L 144 68.363636 
L 144 66.909091 
L 144 65.454545 
L 144 64 
L 144 62.545455 
L 144 61.090909 
L 144 59.636364 
L 144 58.181818 
L 144 56.727273 
L 144 55.272727 
L 144 53.818182 
L 144 52.363636 
L 144 50.909091 
L 144 49.454545 
L 144 48 
L 144 46.545455 
L 144 45.090909 
L 144 43.636364 
L 144 42.181818 
L 144 40.727273 
L 144 39.272727 
L 144 37.818182 
L 144 36.363636 
L 144 34.909091 
L 144 33.454545 
L 144 32 
L 144 30.545455 
L 144 29.090909 
L 144 27.636364 
L 144 26.181818 
L 144 24.727273 
L 144 23.272727 
L 144 21.818182 
L 144 20.363636 
L 144 18.909091 
L 144 17.454545 
L 144 16 
L 144 14.545455 
L 144 13.090909 
L 144 11.636364 
L 144 10.181818 
L 144 8.727273 
L 144 7.272727 
L 144 5.818182 
L 144 4.363636 
L 144 2.909091 
L 144 1.454545 
L 144 0 
L 142.545455 0 
L 141.090909 0 
L 139.636364 0 
L 138.181818 0 
L 136.727273 0 
L 135.272727 0 
L 133.818182 0 
L 132.363636 0 
L 130.909091 0 
L 129.454545 0 
L 128 0 
L 126.545455 0 
L 125.090909 0 
L 123.636364 0 
L 122.181818 0 
L 120.727273 0 
L 119.272727 0 
L 117.818182 0 
L 116.363636 0 
L 114.909091 0 
L 113.454545 0 
L 112 0 
L 110.545455 0 
L 109.090909 0 
L 107.636364 0 
L 106.181818 0 
L 104.727273 0 
L 103.272727 0 
L 101.818182 0 
L 100.363636 0 
L 98.909091 0 
L 97.454545 0 
L 96 0 
L 94.545455 0 
L 93.090909 0 
L 91.636364 0 
L 90.181818 0 
L 88.727273 0 
L 87.272727 0 
L 85.818182 0 
L 84.363636 0 
L 82.909091 0 
L 81.454545 0 
L 80 0 
L 78.545455 0 
L 77.090909 0 
L 75.636364 0 
L 74.181818 0 
L 72.727273 0 
L 71.272727 0 
L 69.818182 0 
L 68.363636 0 
L 66.909091 0 
L 65.454545 0 
L 64 0 
L 62.545455 0 
L 61.090909 0 
L 59.636364 0 
L 58.181818 0 
L 56.727273 0 
L 55.272727 0 
L 53.818182 0 
L 52.363636 0 
L 50.909091 0 
L 49.454545 0 
L 48 0 
L 46.545455 0 
L 45.090909 0 
L 43.636364 0 
L 42.181818 0 
L 40.727273 0 
L 39.272727 0 
L 37.818182 0 
L 36.363636 0 
L 34.909091 0 
L 33.454545 0 
L 32 0 
L 30.545455 0 
L 29.090909 0 
L 27.636364 0 
L 26.181818 0 
L 24.727273 0 
L 23.272727 0 
L 21.818182 0 
L 20.363636 0 
L 18.909091 0 
L 17.454545 0 
L 16 0 
L 14.545455 0 
L 13.090909 0 
L 11.636364 0 
L 10.181818 0 
L 8.727273 0 
L 7.272727 0 
L 5.818182 0 
L 4.363636 0 
L 2.909091 0 
L 1.454545 0 
L 0 0 
L 0 1.454545 
L 0 2.909091 
L 0 4.363636 
L 0 5.818182 
L 0 7.272727 
L 0 8.727273 
L 0 10.181818 
L 0 11.636364 
L 0 13.090909 
L 0 14.545455 
L 0 16 
L 0 17.454545 
L 0 18.909091 
L 0 20.363636 
L 0 21.818182 
L 0 23.272727 
L 0 24.727273 
L 0 26.181818 
L 0 27.636364 
L 0 29.090909 
L 0 30.545455 
L 0 32 
L 0 33.454545 
L 0 34.909091 
L 0 36.363636 
L 0 37.818182 
L 0 39.272727 
L 0 40.727273 
L 0 42.181818 
L 0 43.636364 
L 0 45.090909 
L 0 46.545455 
L 0 48 
L 0 49.454545 
L 0 50.909091 
L 0 52.363636 
L 0 53.818182 
L 0 55.272727 
L 0 56.727273 
L 0 58.181818 
L 0 59.636364 
L 0 61.090909 
L 0 62.545455 
L 0 64 
L 0 65.454545 
L 0 66.909091 
L 0 68.363636 
L 0 69.818182 
L 0 71.272727 
L 0 72.727273 
L 0 74.181818 
L 0 75.636364 
L 0 77.090909 
L 0 78.545455 
L 0 80 
L 0 81.454545 
L 0 82.909091 
L 0 84.363636 
L 0 85.818182 
L 0 87.272727 
L 0 88.727273 
L 0 90.181818 
L 0 91.636364 
L 0 93.090909 
L 0 94.545455 
L 0 96 
L 0 97.454545 
L 0 98.909091 
L 0 100.363636 
L 0 101.818182 
L 0 103.272727 
L 0 104.727273 
L 0 106.181818 
L 0 107.636364 
L 0 109.090909 
L 0 110.545455 
L 0 112 
L 0 113.454545 
L 0 114.909091 
L 0 116.363636 
L 0 117.818182 
L 0 119.272727 
L 0 120.727273 
L 0 122.181818 
L 0 123.636364 
L 0 125.090909 
L 0 126.545455 
L 0 128 
L 0 129.454545 
L 0 130.909091 
L 0 132.363636 
L 0 133.818182 
L 0 135.272727 
L 0 136.727273 
L 0 138.181818 
L 0 139.636364 
L 0 141.090909 
L 0 142.545455 
L 0 144 
z
" clip-path="url(#p3d4f82c1d5)" style="fill: #08bdbd"/>
   </g>
   <g id="PathCollection_2">
    <path d="M 58.181818 144 
L 59.636364 144 
L 61.090909 144 
L 62.545455 144 
L 64 144 
L 65.454545 144 
L 66.909091 144 
L 68.363636 144 
L 69.818182 144 
L 71.272727 144 
L 72.727273 144 
L 74.181818 144 
L 75.636364 144 
L 77.090909 144 
L 78.545455 144 
L 80 144 
L 81.454545 144 
L 82.909091 144 
L 84.363636 144 
L 85.818182 144 
L 87.272727 144 
L 88.727273 144 
L 89.939954 144 
L 90.087156 142.545455 
L 90.181818 142.232421 
L 90.524989 141.090909 
L 91.23711 139.636364 
L 91.636364 139.037646 
L 92.199943 138.181818 
L 93.090909 137.076554 
L 93.368349 136.727273 
L 94.545455 135.43351 
L 94.688945 135.272727 
L 96 133.924161 
L 96.100547 133.818182 
L 97.454545 132.453331 
L 97.54103 132.363636 
L 98.909091 130.958546 
L 98.955808 130.909091 
L 100.307492 129.454545 
L 100.363636 129.39228 
L 101.576826 128 
L 101.818182 127.707327 
L 102.750358 126.545455 
L 103.272727 125.845412 
L 103.825404 125.090909 
L 104.727273 123.750515 
L 104.803476 123.636364 
L 105.735357 122.181818 
L 106.181818 121.429751 
L 106.601503 120.727273 
L 107.422008 119.272727 
L 107.636364 118.881113 
L 108.230806 117.818182 
L 108.997256 116.363636 
L 109.090909 116.184816 
L 109.7834 114.909091 
L 110.523529 113.454545 
L 110.545455 113.411266 
L 111.29623 112 
L 112 110.568648 
L 112.012106 110.545455 
L 112.754404 109.090909 
L 113.425052 107.636364 
L 113.454545 107.568657 
L 114.104815 106.181818 
L 114.706056 104.727273 
L 114.909091 104.177946 
L 115.27412 103.272727 
L 115.782275 101.818182 
L 116.206756 100.363636 
L 116.363636 99.717614 
L 116.581909 98.909091 
L 116.897622 97.454545 
L 117.139107 96 
L 117.314995 94.545455 
L 117.433879 93.090909 
L 117.504298 91.636364 
L 117.534644 90.181818 
L 117.532961 88.727273 
L 117.506617 87.272727 
L 117.461862 85.818182 
L 117.403278 84.363636 
L 117.333193 82.909091 
L 117.251092 81.454545 
L 117.153086 80 
L 117.031466 78.545455 
L 116.87434 77.090909 
L 116.6653 75.636364 
L 116.383078 74.181818 
L 116.363636 74.103553 
L 116.025494 72.727273 
L 115.541757 71.272727 
L 114.909091 69.851918 
L 114.89354 69.818182 
L 114.070596 68.363636 
L 113.454545 67.493814 
L 113.00702 66.909091 
L 112 65.785421 
L 111.671129 65.454545 
L 110.545455 64.417206 
L 110.034913 64 
L 109.090909 63.23556 
L 108.130689 62.545455 
L 107.636364 62.156153 
L 106.181818 61.109808 
L 106.153349 61.090909 
L 104.727273 59.820386 
L 104.516751 59.636364 
L 103.67618 58.181818 
L 103.707334 56.727273 
L 104.417367 55.272727 
L 104.727273 54.919114 
L 105.607355 53.818182 
L 106.181818 53.294369 
L 107.128191 52.363636 
L 107.636364 51.960168 
L 108.877723 50.909091 
L 109.090909 50.753342 
L 110.545455 49.64572 
L 110.786851 49.454545 
L 112 48.58932 
L 112.787986 48 
L 113.454545 47.531777 
L 114.800598 46.545455 
L 114.909091 46.468131 
L 116.363636 45.418441 
L 116.804229 45.090909 
L 117.818182 44.33772 
L 118.736118 43.636364 
L 119.272727 43.215995 
L 120.568523 42.181818 
L 120.727273 42.049039 
L 122.181818 40.830939 
L 122.305832 40.727273 
L 123.636364 39.547789 
L 123.948997 39.272727 
L 125.090909 38.19362 
L 125.497533 37.818182 
L 126.545455 36.769426 
L 126.96774 36.363636 
L 128 35.281837 
L 128.377616 34.909091 
L 129.454545 33.744725 
L 129.745618 33.454545 
L 130.909091 32.178496 
L 131.089853 32 
L 132.363636 30.606478 
L 132.427301 30.545455 
L 133.778174 29.090909 
L 133.818182 29.040531 
L 135.153873 27.636364 
L 135.272727 27.484413 
L 136.542542 26.181818 
L 136.727273 25.933814 
L 137.905858 24.727273 
L 138.181818 24.298208 
L 139.109562 23.272727 
L 139.636364 21.912182 
L 139.693367 21.818182 
L 139.636364 21.678694 
L 139.185784 20.363636 
L 138.181818 19.622931 
L 137.262621 18.909091 
L 136.727273 18.671312 
L 135.272727 17.999 
L 134.019056 17.454545 
L 133.818182 17.391117 
L 132.363636 16.931065 
L 130.909091 16.515986 
L 129.454545 16.152496 
L 128.769078 16 
L 128 15.85467 
L 126.545455 15.611717 
L 125.090909 15.410251 
L 123.636364 15.249353 
L 122.181818 15.127401 
L 120.727273 15.042412 
L 119.272727 14.992282 
L 117.818182 14.974937 
L 116.363636 14.988438 
L 114.909091 15.031039 
L 113.454545 15.101222 
L 112 15.197713 
L 110.545455 15.31949 
L 109.090909 15.465788 
L 107.636364 15.636099 
L 106.181818 15.830172 
L 105.050975 16 
L 104.727273 16.042404 
L 103.272727 16.252993 
L 101.818182 16.479782 
L 100.363636 16.722769 
L 98.909091 16.982182 
L 97.454545 17.258496 
L 96.483697 17.454545 
L 96 17.538336 
L 94.545455 17.802372 
L 93.090909 18.077902 
L 91.636364 18.365917 
L 90.181818 18.667697 
L 89.070594 18.909091 
L 88.727273 18.973627 
L 87.272727 19.2557 
L 85.818182 19.54967 
L 84.363636 19.85761 
L 82.909091 20.182024 
L 82.129064 20.363636 
L 81.454545 20.502176 
L 80 20.812028 
L 78.545455 21.140154 
L 77.090909 21.490358 
L 75.818028 21.818182 
L 75.636364 21.860342 
L 74.181818 22.208662 
L 72.727273 22.583941 
L 71.272727 22.991978 
L 70.339688 23.272727 
L 69.818182 23.416019 
L 68.363636 23.835839 
L 66.909091 24.296295 
L 65.666247 24.727273 
L 65.454545 24.794735 
L 64 25.275653 
L 62.545455 25.805391 
L 61.589608 26.181818 
L 61.090909 26.361913 
L 59.636364 26.91177 
L 58.181818 27.516774 
L 57.904833 27.636364 
L 56.727273 28.099418 
L 55.272727 28.713501 
L 54.428691 29.090909 
L 53.818182 29.340186 
L 52.363636 29.9551 
L 51.062188 30.545455 
L 50.909091 30.609286 
L 49.454545 31.219723 
L 48 31.873791 
L 47.723378 32 
L 46.545455 32.496674 
L 45.090909 33.142253 
L 44.408756 33.454545 
L 43.636364 33.78682 
L 42.181818 34.432485 
L 41.157911 34.909091 
L 40.727273 35.101105 
L 39.272727 35.760364 
L 38.020907 36.363636 
L 37.818182 36.459132 
L 36.363636 37.149451 
L 35.048004 37.818182 
L 34.909091 37.888582 
L 33.454545 38.630693 
L 32.27549 39.272727 
L 32 39.425038 
L 30.545455 40.24216 
L 29.722272 40.727273 
L 29.090909 41.110933 
L 27.636364 42.027153 
L 27.394651 42.181818 
L 26.181818 42.991622 
L 25.25009 43.636364 
L 24.727273 44.018944 
L 23.29163 45.090909 
L 23.272727 45.106008 
L 21.818182 46.254274 
L 21.450694 46.545455 
L 20.363636 47.46857 
L 19.730446 48 
L 18.909091 48.744597 
L 18.103405 49.454545 
L 17.454545 50.076779 
L 16.545981 50.909091 
L 16 51.457804 
L 15.038785 52.363636 
L 14.545455 52.878622 
L 13.565775 53.818182 
L 13.090909 54.329095 
L 12.113919 55.272727 
L 11.636364 55.79944 
L 10.673682 56.727273 
L 10.181818 57.282881 
L 9.241233 58.181818 
L 8.727273 58.781074 
L 7.824823 59.636364 
L 7.272727 60.31857 
L 6.462813 61.090909 
L 5.818182 61.99966 
L 5.279262 62.545455 
L 4.598779 64 
L 4.874521 65.454545 
L 5.818182 66.307343 
L 6.442987 66.909091 
L 7.272727 67.338282 
L 8.727273 68.095998 
L 9.251032 68.363636 
L 10.181818 68.700706 
L 11.636364 69.204613 
L 13.090909 69.656021 
L 13.656469 69.818182 
L 14.545455 70.027697 
L 16 70.338994 
L 17.454545 70.606469 
L 18.909091 70.83052 
L 20.363636 71.012623 
L 21.818182 71.154871 
L 23.272727 71.259659 
L 23.532043 71.272727 
L 24.727273 71.33055 
L 26.181818 71.369529 
L 27.636364 71.377928 
L 29.090909 71.357111 
L 30.545455 71.308304 
L 31.218717 71.272727 
L 32 71.235191 
L 33.454545 71.141341 
L 34.909091 71.026 
L 36.363636 70.890164 
L 37.818182 70.73456 
L 39.272727 70.559637 
L 40.727273 70.365562 
L 42.181818 70.152208 
L 43.636364 69.919152 
L 44.218738 69.818182 
L 45.090909 69.685575 
L 46.545455 69.451202 
L 48 69.203779 
L 49.454545 68.943043 
L 50.909091 68.668626 
L 52.363636 68.380054 
L 52.444828 68.363636 
L 53.818182 68.125159 
L 55.272727 67.868033 
L 56.727273 67.606934 
L 58.181818 67.342941 
L 59.636364 67.07744 
L 60.579186 66.909091 
L 61.090909 66.831345 
L 62.545455 66.626513 
L 64 66.436205 
L 65.454545 66.265832 
L 66.909091 66.122904 
L 68.363636 66.018295 
L 69.818182 65.968614 
L 71.272727 66.000985 
L 72.727273 66.163637 
L 74.181818 66.552594 
L 74.904427 66.909091 
L 75.459504 68.363636 
L 74.915645 69.818182 
L 74.181818 70.880957 
L 73.940466 71.272727 
L 72.727273 72.72518 
L 72.725664 72.727273 
L 71.363615 74.181818 
L 71.272727 74.270845 
L 69.940367 75.636364 
L 69.818182 75.757178 
L 68.510327 77.090909 
L 68.363636 77.241901 
L 67.120148 78.545455 
L 66.909091 78.778537 
L 65.81004 80 
L 65.454545 80.434135 
L 64.614113 81.454545 
L 64 82.309699 
L 63.56139 82.909091 
L 62.663746 84.363636 
L 62.545455 84.59258 
L 61.886558 85.818182 
L 61.271304 87.272727 
L 61.090909 87.801152 
L 60.754795 88.727273 
L 60.329248 90.181818 
L 59.980946 91.636364 
L 59.677307 93.090909 
L 59.636364 93.290534 
L 59.355896 94.545455 
L 59.027079 96 
L 58.682982 97.454545 
L 58.317415 98.909091 
L 58.181818 99.404937 
L 57.893265 100.363636 
L 57.43452 101.818182 
L 56.972911 103.272727 
L 56.727273 104.050171 
L 56.49067 104.727273 
L 56.002413 106.181818 
L 55.558472 107.636364 
L 55.272727 108.699213 
L 55.155363 109.090909 
L 54.788302 110.545455 
L 54.505223 112 
L 54.310753 113.454545 
L 54.208163 114.909091 
L 54.199432 116.363636 
L 54.285038 117.818182 
L 54.463488 119.272727 
L 54.730577 120.727273 
L 55.078439 122.181818 
L 55.272727 122.879234 
L 55.474031 123.636364 
L 55.898646 125.090909 
L 56.349935 126.545455 
L 56.727273 127.767733 
L 56.797654 128 
L 57.197 129.454545 
L 57.5525 130.909091 
L 57.843993 132.363636 
L 58.058376 133.818182 
L 58.181818 135.164508 
L 58.191835 135.272727 
L 58.250617 136.727273 
L 58.253467 138.181818 
L 58.221024 139.636364 
L 58.181818 140.912575 
L 58.176206 141.090909 
L 58.13965 142.545455 
L 58.12581 144 
z
M 75.967876 135.272727 
L 75.636364 135.26977 
L 74.181818 135.012979 
L 72.727273 134.447415 
L 71.747427 133.818182 
L 71.272727 133.53721 
L 69.883575 132.363636 
L 69.818182 132.311424 
L 68.458944 130.909091 
L 68.363636 130.813824 
L 67.241243 129.454545 
L 66.909091 129.054338 
L 66.151836 128 
L 65.454545 127.004855 
L 65.16522 126.545455 
L 64.279104 125.090909 
L 64 124.600581 
L 63.486539 123.636364 
L 62.79631 122.181818 
L 62.545455 121.573014 
L 62.207332 120.727273 
L 61.727419 119.272727 
L 61.365642 117.818182 
L 61.120681 116.363636 
L 61.090909 116.044441 
L 60.982255 114.909091 
L 60.954991 113.454545 
L 61.033821 112 
L 61.090909 111.533407 
L 61.20217 110.545455 
L 61.44728 109.090909 
L 61.762407 107.636364 
L 62.136588 106.181818 
L 62.545455 104.772514 
L 62.557728 104.727273 
L 62.979554 103.272727 
L 63.422036 101.818182 
L 63.877427 100.363636 
L 64 99.96984 
L 64.313057 98.909091 
L 64.741134 97.454545 
L 65.173536 96 
L 65.454545 95.065305 
L 65.60506 94.545455 
L 66.035909 93.090909 
L 66.503635 91.636364 
L 66.909091 90.50381 
L 67.022099 90.181818 
L 67.591711 88.727273 
L 68.268529 87.272727 
L 68.363636 87.093743 
L 69.039768 85.818182 
L 69.818182 84.580172 
L 69.95568 84.363636 
L 71.005759 82.909091 
L 71.272727 82.580643 
L 72.208435 81.454545 
L 72.727273 80.888008 
L 73.567318 80 
L 74.181818 79.393035 
L 75.077407 78.545455 
L 75.636364 78.036872 
L 76.733353 77.090909 
L 77.090909 76.786161 
L 78.532023 75.636364 
L 78.545455 75.625482 
L 80 74.519289 
L 80.486183 74.181818 
L 81.454545 73.482535 
L 82.623479 72.727273 
L 82.909091 72.530646 
L 84.363636 71.63828 
L 85.050318 71.272727 
L 85.818182 70.829297 
L 87.272727 70.121527 
L 88.0263 69.818182 
L 88.727273 69.507291 
L 90.181818 68.997105 
L 91.636364 68.618317 
L 93.066675 68.363636 
L 93.090909 68.358839 
L 94.545455 68.200265 
L 96 68.17246 
L 97.454545 68.276106 
L 97.988877 68.363636 
L 98.909091 68.509706 
L 100.363636 68.888072 
L 101.818182 69.440917 
L 102.56623 69.818182 
L 103.272727 70.200873 
L 104.727273 71.226343 
L 104.782008 71.272727 
L 106.181818 72.641576 
L 106.25586 72.727273 
L 107.327536 74.181818 
L 107.636364 74.695406 
L 108.144346 75.636364 
L 108.779599 77.090909 
L 109.090909 77.966805 
L 109.285459 78.545455 
L 109.697917 80 
L 110.036171 81.454545 
L 110.31604 82.909091 
L 110.545455 84.347799 
L 110.548001 84.363636 
L 110.748358 85.818182 
L 110.908004 87.272727 
L 111.02612 88.727273 
L 111.099888 90.181818 
L 111.125115 91.636364 
L 111.096736 93.090909 
L 111.009208 94.545455 
L 110.856792 96 
L 110.633736 97.454545 
L 110.545455 97.887794 
L 110.351217 98.909091 
L 110.002345 100.363636 
L 109.576324 101.818182 
L 109.090909 103.212381 
L 109.070954 103.272727 
L 108.527194 104.727273 
L 107.906787 106.181818 
L 107.636364 106.758746 
L 107.23968 107.636364 
L 106.521514 109.090909 
L 106.181818 109.732843 
L 105.761806 110.545455 
L 104.958564 112 
L 104.727273 112.400947 
L 104.125705 113.454545 
L 103.272727 114.856126 
L 103.240435 114.909091 
L 102.332133 116.363636 
L 101.818182 117.143454 
L 101.36585 117.818182 
L 100.363636 119.236124 
L 100.336962 119.272727 
L 99.247863 120.727273 
L 98.909091 121.158531 
L 98.066712 122.181818 
L 97.454545 122.893887 
L 96.77646 123.636364 
L 96 124.458186 
L 95.356558 125.090909 
L 94.545455 125.871754 
L 93.783031 126.545455 
L 93.090909 127.153912 
L 92.031258 128 
L 91.636364 128.319869 
L 90.181818 129.384502 
L 90.075296 129.454545 
L 88.727273 130.384558 
L 87.862883 130.909091 
L 87.272727 131.295088 
L 85.818182 132.131793 
L 85.350088 132.363636 
L 84.363636 132.913372 
L 82.909091 133.600227 
L 82.341324 133.818182 
L 81.454545 134.22079 
L 80 134.733758 
L 78.545455 135.093713 
L 77.159763 135.272727 
L 77.090909 135.284081 
z
M 31.30807 64 
L 30.545455 63.775875 
L 29.090909 63.227357 
L 27.716215 62.545455 
L 27.636364 62.491503 
L 26.181818 61.29377 
L 25.9776 61.090909 
L 25.096247 59.636364 
L 24.756891 58.181818 
L 24.802762 56.727273 
L 25.143598 55.272727 
L 25.730324 53.818182 
L 26.181818 53.018404 
L 26.528124 52.363636 
L 27.517283 50.909091 
L 27.636364 50.76519 
L 28.679641 49.454545 
L 29.090909 49.017322 
L 30.023417 48 
L 30.545455 47.507488 
L 31.552067 46.545455 
L 32 46.167748 
L 33.276922 45.090909 
L 33.454545 44.956162 
L 34.909091 43.856936 
L 35.202665 43.636364 
L 36.363636 42.840413 
L 37.346109 42.181818 
L 37.818182 41.886994 
L 39.272727 40.995768 
L 39.717963 40.727273 
L 40.727273 40.150072 
L 42.181818 39.34752 
L 42.318202 39.272727 
L 43.636364 38.574196 
L 45.090909 37.836245 
L 45.126601 37.818182 
L 46.545455 37.111125 
L 48 36.417801 
L 48.114116 36.363636 
L 49.454545 35.725944 
L 50.909091 35.061923 
L 51.247432 34.909091 
L 52.363636 34.39581 
L 53.818182 33.750753 
L 54.500529 33.454545 
L 55.272727 33.109022 
L 56.727273 32.477762 
L 57.869958 32 
L 58.181818 31.864401 
L 59.636364 31.246667 
L 61.090909 30.660634 
L 61.383213 30.545455 
L 62.545455 30.069474 
L 64 29.505208 
L 65.122727 29.090909 
L 65.454545 28.963206 
L 66.909091 28.425154 
L 68.363636 27.922449 
L 69.234827 27.636364 
L 69.818182 27.436856 
L 71.272727 26.965418 
L 72.727273 26.526834 
L 73.946189 26.181818 
L 74.181818 26.112125 
L 75.636364 25.703551 
L 77.090909 25.324472 
L 78.545455 24.971132 
L 79.613979 24.727273 
L 80 24.634552 
L 81.454545 24.306053 
L 82.909091 24.000908 
L 84.363636 23.716646 
L 85.818182 23.451272 
L 86.866226 23.272727 
L 87.272727 23.198901 
L 88.727273 22.954775 
L 90.181818 22.730033 
L 91.636364 22.523879 
L 93.090909 22.335934 
L 94.545455 22.166239 
L 96 22.015274 
L 97.454545 21.883983 
L 98.336138 21.818182 
L 98.909091 21.772203 
L 100.363636 21.68311 
L 101.818182 21.621915 
L 103.272727 21.591604 
L 104.727273 21.595987 
L 106.181818 21.639848 
L 107.636364 21.729145 
L 108.569215 21.818182 
L 109.090909 21.872721 
L 110.545455 22.08541 
L 112 22.380494 
L 113.454545 22.77698 
L 114.841182 23.272727 
L 114.909091 23.303122 
L 116.363636 24.089939 
L 117.284333 24.727273 
L 117.818182 25.271121 
L 118.569845 26.181818 
L 119.199298 27.636364 
L 119.272727 28.169021 
L 119.390129 29.090909 
L 119.272727 30.300049 
L 119.251231 30.545455 
L 118.855906 32 
L 118.233598 33.454545 
L 117.818182 34.168597 
L 117.411066 34.909091 
L 116.396933 36.363636 
L 116.363636 36.403392 
L 115.212032 37.818182 
L 114.909091 38.137125 
L 113.846983 39.272727 
L 113.454545 39.642269 
L 112.30622 40.727273 
L 112 40.989024 
L 110.593954 42.181818 
L 110.545455 42.220046 
L 109.090909 43.35943 
L 108.731898 43.636364 
L 107.636364 44.43958 
L 106.724601 45.090909 
L 106.181818 45.469608 
L 104.727273 46.45417 
L 104.590253 46.545455 
L 103.272727 47.422127 
L 102.365191 48 
L 101.818182 48.357237 
L 100.363636 49.266705 
L 100.0528 49.454545 
L 98.909091 50.176711 
L 97.664471 50.909091 
L 97.454545 51.041436 
L 96 51.912554 
L 95.183628 52.363636 
L 94.545455 52.745955 
L 93.090909 53.543101 
L 92.546013 53.818182 
L 91.636364 54.31956 
L 90.181818 55.028537 
L 89.630767 55.272727 
L 88.727273 55.711295 
L 87.272727 56.327437 
L 86.192131 56.727273 
L 85.818182 56.879157 
L 84.363636 57.414074 
L 82.909091 57.870001 
L 81.794223 58.181818 
L 81.454545 58.284995 
L 80 58.697312 
L 78.545455 59.061647 
L 77.090909 59.392142 
L 75.948044 59.636364 
L 75.636364 59.707954 
L 74.181818 60.034013 
L 72.727273 60.338068 
L 71.272727 60.626219 
L 69.818182 60.90276 
L 68.80801 61.090909 
L 68.363636 61.179749 
L 66.909091 61.466454 
L 65.454545 61.741632 
L 64 62.007135 
L 62.545455 62.264187 
L 61.090909 62.513549 
L 60.900186 62.545455 
L 59.636364 62.773247 
L 58.181818 63.023422 
L 56.727273 63.261466 
L 55.272727 63.487475 
L 53.818182 63.70129 
L 52.363636 63.902515 
L 51.602642 64 
L 50.909091 64.095905 
L 49.454545 64.277573 
L 48 64.439944 
L 46.545455 64.581832 
L 45.090909 64.70163 
L 43.636364 64.79723 
L 42.181818 64.865926 
L 40.727273 64.9043 
L 39.272727 64.908067 
L 37.818182 64.871894 
L 36.363636 64.789169 
L 34.909091 64.651711 
L 33.454545 64.449399 
L 32 64.169685 
z
" clip-path="url(#p3d4f82c1d5)" style="fill: #07adad"/>
   </g>
   <g id="PathCollection_3">
    <path d="M 77.090909 135.284081 
L 77.159763 135.272727 
L 78.545455 135.093713 
L 80 134.733758 
L 81.454545 134.22079 
L 82.341324 133.818182 
L 82.909091 133.600227 
L 84.363636 132.913372 
L 85.350088 132.363636 
L 85.818182 132.131793 
L 87.272727 131.295088 
L 87.862883 130.909091 
L 88.727273 130.384558 
L 90.075296 129.454545 
L 90.181818 129.384502 
L 91.636364 128.319869 
L 92.031258 128 
L 93.090909 127.153912 
L 93.783031 126.545455 
L 94.545455 125.871754 
L 95.356558 125.090909 
L 96 124.458186 
L 96.77646 123.636364 
L 97.454545 122.893887 
L 98.066712 122.181818 
L 98.909091 121.158531 
L 99.247863 120.727273 
L 100.336962 119.272727 
L 100.363636 119.236124 
L 101.36585 117.818182 
L 101.818182 117.143454 
L 102.332133 116.363636 
L 103.240435 114.909091 
L 103.272727 114.856126 
L 104.125705 113.454545 
L 104.727273 112.400947 
L 104.958564 112 
L 105.761806 110.545455 
L 106.181818 109.732843 
L 106.521514 109.090909 
L 107.23968 107.636364 
L 107.636364 106.758746 
L 107.906787 106.181818 
L 108.527194 104.727273 
L 109.070954 103.272727 
L 109.090909 103.212381 
L 109.576324 101.818182 
L 110.002345 100.363636 
L 110.351217 98.909091 
L 110.545455 97.887794 
L 110.633736 97.454545 
L 110.856792 96 
L 111.009208 94.545455 
L 111.096736 93.090909 
L 111.125115 91.636364 
L 111.099888 90.181818 
L 111.02612 88.727273 
L 110.908004 87.272727 
L 110.748358 85.818182 
L 110.548001 84.363636 
L 110.545455 84.347799 
L 110.31604 82.909091 
L 110.036171 81.454545 
L 109.697917 80 
L 109.285459 78.545455 
L 109.090909 77.966805 
L 108.779599 77.090909 
L 108.144346 75.636364 
L 107.636364 74.695406 
L 107.327536 74.181818 
L 106.25586 72.727273 
L 106.181818 72.641576 
L 104.782008 71.272727 
L 104.727273 71.226343 
L 103.272727 70.200873 
L 102.56623 69.818182 
L 101.818182 69.440917 
L 100.363636 68.888072 
L 98.909091 68.509706 
L 97.988877 68.363636 
L 97.454545 68.276106 
L 96 68.17246 
L 94.545455 68.200265 
L 93.090909 68.358839 
L 93.066675 68.363636 
L 91.636364 68.618317 
L 90.181818 68.997105 
L 88.727273 69.507291 
L 88.0263 69.818182 
L 87.272727 70.121527 
L 85.818182 70.829297 
L 85.050318 71.272727 
L 84.363636 71.63828 
L 82.909091 72.530646 
L 82.623479 72.727273 
L 81.454545 73.482535 
L 80.486183 74.181818 
L 80 74.519289 
L 78.545455 75.625482 
L 78.532023 75.636364 
L 77.090909 76.786161 
L 76.733353 77.090909 
L 75.636364 78.036872 
L 75.077407 78.545455 
L 74.181818 79.393035 
L 73.567318 80 
L 72.727273 80.888008 
L 72.208435 81.454545 
L 71.272727 82.580643 
L 71.005759 82.909091 
L 69.95568 84.363636 
L 69.818182 84.580172 
L 69.039768 85.818182 
L 68.363636 87.093743 
L 68.268529 87.272727 
L 67.591711 88.727273 
L 67.022099 90.181818 
L 66.909091 90.50381 
L 66.503635 91.636364 
L 66.035909 93.090909 
L 65.60506 94.545455 
L 65.454545 95.065305 
L 65.173536 96 
L 64.741134 97.454545 
L 64.313057 98.909091 
L 64 99.96984 
L 63.877427 100.363636 
L 63.422036 101.818182 
L 62.979554 103.272727 
L 62.557728 104.727273 
L 62.545455 104.772514 
L 62.136588 106.181818 
L 61.762407 107.636364 
L 61.44728 109.090909 
L 61.20217 110.545455 
L 61.090909 111.533407 
L 61.033821 112 
L 60.954991 113.454545 
L 60.982255 114.909091 
L 61.090909 116.044441 
L 61.120681 116.363636 
L 61.365642 117.818182 
L 61.727419 119.272727 
L 62.207332 120.727273 
L 62.545455 121.573014 
L 62.79631 122.181818 
L 63.486539 123.636364 
L 64 124.600581 
L 64.279104 125.090909 
L 65.16522 126.545455 
L 65.454545 127.004855 
L 66.151836 128 
L 66.909091 129.054338 
L 67.241243 129.454545 
L 68.363636 130.813824 
L 68.458944 130.909091 
L 69.818182 132.311424 
L 69.883575 132.363636 
L 71.272727 133.53721 
L 71.747427 133.818182 
L 72.727273 134.447415 
L 74.181818 135.012979 
L 75.636364 135.26977 
L 75.967876 135.272727 
z
M 76.249722 126.545455 
L 75.636364 126.389815 
L 74.181818 125.815996 
L 72.89555 125.090909 
L 72.727273 124.992773 
L 71.272727 123.901602 
L 70.986074 123.636364 
L 69.818182 122.461554 
L 69.582198 122.181818 
L 68.494552 120.727273 
L 68.363636 120.522697 
L 67.648065 119.272727 
L 66.991736 117.818182 
L 66.909091 117.581368 
L 66.511023 116.363636 
L 66.185016 114.909091 
L 65.999724 113.454545 
L 65.941188 112 
L 65.994892 110.545455 
L 66.146204 109.090909 
L 66.3808 107.636364 
L 66.685076 106.181818 
L 66.909091 105.281367 
L 67.041958 104.727273 
L 67.433327 103.272727 
L 67.856455 101.818182 
L 68.304865 100.363636 
L 68.363636 100.17899 
L 68.759976 98.909091 
L 69.230179 97.454545 
L 69.721229 96 
L 69.818182 95.721666 
L 70.227285 94.545455 
L 70.766688 93.090909 
L 71.272727 91.840256 
L 71.356495 91.636364 
L 72.003158 90.181818 
L 72.727273 88.751328 
L 72.739836 88.727273 
L 73.577875 87.272727 
L 74.181818 86.352899 
L 74.5491 85.818182 
L 75.636364 84.40716 
L 75.671894 84.363636 
L 76.973147 82.909091 
L 77.090909 82.788015 
L 78.478341 81.454545 
L 78.545455 81.393956 
L 80 80.173991 
L 80.227554 80 
L 81.454545 79.092811 
L 82.278682 78.545455 
L 82.909091 78.132462 
L 84.363636 77.286386 
L 84.749632 77.090909 
L 85.818182 76.544593 
L 87.272727 75.915086 
L 88.062649 75.636364 
L 88.727273 75.394906 
L 90.181818 74.991202 
L 91.636364 74.714997 
L 93.090909 74.574743 
L 94.545455 74.5843 
L 96 74.764078 
L 97.454545 75.142737 
L 98.635327 75.636364 
L 98.909091 75.762482 
L 100.363636 76.699451 
L 100.824218 77.090909 
L 101.818182 78.069569 
L 102.210118 78.545455 
L 103.218432 80 
L 103.272727 80.091382 
L 103.980586 81.454545 
L 104.596276 82.909091 
L 104.727273 83.272901 
L 105.090098 84.363636 
L 105.490948 85.818182 
L 105.812447 87.272727 
L 106.060709 88.727273 
L 106.181818 89.707204 
L 106.239559 90.181818 
L 106.350137 91.636364 
L 106.389248 93.090909 
L 106.354436 94.545455 
L 106.242822 96 
L 106.181818 96.462861 
L 106.055866 97.454545 
L 105.792565 98.909091 
L 105.449276 100.363636 
L 105.024361 101.818182 
L 104.727273 102.674314 
L 104.523748 103.272727 
L 103.95534 104.727273 
L 103.308754 106.181818 
L 103.272727 106.255966 
L 102.606187 107.636364 
L 101.831558 109.090909 
L 101.818182 109.114595 
L 101.004607 110.545455 
L 100.363636 111.593758 
L 100.11041 112 
L 99.155088 113.454545 
L 98.909091 113.812393 
L 98.128633 114.909091 
L 97.454545 115.810256 
L 97.019701 116.363636 
L 96 117.605527 
L 95.813638 117.818182 
L 94.545455 119.211583 
L 94.48503 119.272727 
L 93.090909 120.640901 
L 92.993559 120.727273 
L 91.636364 121.905689 
L 91.277517 122.181818 
L 90.181818 123.016407 
L 89.243678 123.636364 
L 88.727273 123.978982 
L 87.272727 124.805312 
L 86.66736 125.090909 
L 85.818182 125.503369 
L 84.363636 126.0696 
L 82.909091 126.495831 
L 82.655728 126.545455 
L 81.454545 126.797395 
L 80 126.950586 
L 78.545455 126.943385 
L 77.090909 126.760738 
z
" clip-path="url(#p3d4f82c1d5)" style="fill: #069d9d"/>
    <path d="M 32 64.169685 
L 33.454545 64.449399 
L 34.909091 64.651711 
L 36.363636 64.789169 
L 37.818182 64.871894 
L 39.272727 64.908067 
L 40.727273 64.9043 
L 42.181818 64.865926 
L 43.636364 64.79723 
L 45.090909 64.70163 
L 46.545455 64.581832 
L 48 64.439944 
L 49.454545 64.277573 
L 50.909091 64.095905 
L 51.602642 64 
L 52.363636 63.902515 
L 53.818182 63.70129 
L 55.272727 63.487475 
L 56.727273 63.261466 
L 58.181818 63.023422 
L 59.636364 62.773247 
L 60.900186 62.545455 
L 61.090909 62.513549 
L 62.545455 62.264187 
L 64 62.007135 
L 65.454545 61.741632 
L 66.909091 61.466454 
L 68.363636 61.179749 
L 68.80801 61.090909 
L 69.818182 60.90276 
L 71.272727 60.626219 
L 72.727273 60.338068 
L 74.181818 60.034013 
L 75.636364 59.707954 
L 75.948044 59.636364 
L 77.090909 59.392142 
L 78.545455 59.061647 
L 80 58.697312 
L 81.454545 58.284995 
L 81.794223 58.181818 
L 82.909091 57.870001 
L 84.363636 57.414074 
L 85.818182 56.879157 
L 86.192131 56.727273 
L 87.272727 56.327437 
L 88.727273 55.711295 
L 89.630767 55.272727 
L 90.181818 55.028537 
L 91.636364 54.31956 
L 92.546013 53.818182 
L 93.090909 53.543101 
L 94.545455 52.745955 
L 95.183628 52.363636 
L 96 51.912554 
L 97.454545 51.041436 
L 97.664471 50.909091 
L 98.909091 50.176711 
L 100.0528 49.454545 
L 100.363636 49.266705 
L 101.818182 48.357237 
L 102.365191 48 
L 103.272727 47.422127 
L 104.590253 46.545455 
L 104.727273 46.45417 
L 106.181818 45.469608 
L 106.724601 45.090909 
L 107.636364 44.43958 
L 108.731898 43.636364 
L 109.090909 43.35943 
L 110.545455 42.220046 
L 110.593954 42.181818 
L 112 40.989024 
L 112.30622 40.727273 
L 113.454545 39.642269 
L 113.846983 39.272727 
L 114.909091 38.137125 
L 115.212032 37.818182 
L 116.363636 36.403392 
L 116.396933 36.363636 
L 117.411066 34.909091 
L 117.818182 34.168597 
L 118.233598 33.454545 
L 118.855906 32 
L 119.251231 30.545455 
L 119.272727 30.300049 
L 119.390129 29.090909 
L 119.272727 28.169021 
L 119.199298 27.636364 
L 118.569845 26.181818 
L 117.818182 25.271121 
L 117.284333 24.727273 
L 116.363636 24.089939 
L 114.909091 23.303122 
L 114.841182 23.272727 
L 113.454545 22.77698 
L 112 22.380494 
L 110.545455 22.08541 
L 109.090909 21.872721 
L 108.569215 21.818182 
L 107.636364 21.729145 
L 106.181818 21.639848 
L 104.727273 21.595987 
L 103.272727 21.591604 
L 101.818182 21.621915 
L 100.363636 21.68311 
L 98.909091 21.772203 
L 98.336138 21.818182 
L 97.454545 21.883983 
L 96 22.015274 
L 94.545455 22.166239 
L 93.090909 22.335934 
L 91.636364 22.523879 
L 90.181818 22.730033 
L 88.727273 22.954775 
L 87.272727 23.198901 
L 86.866226 23.272727 
L 85.818182 23.451272 
L 84.363636 23.716646 
L 82.909091 24.000908 
L 81.454545 24.306053 
L 80 24.634552 
L 79.613979 24.727273 
L 78.545455 24.971132 
L 77.090909 25.324472 
L 75.636364 25.703551 
L 74.181818 26.112125 
L 73.946189 26.181818 
L 72.727273 26.526834 
L 71.272727 26.965418 
L 69.818182 27.436856 
L 69.234827 27.636364 
L 68.363636 27.922449 
L 66.909091 28.425154 
L 65.454545 28.963206 
L 65.122727 29.090909 
L 64 29.505208 
L 62.545455 30.069474 
L 61.383213 30.545455 
L 61.090909 30.660634 
L 59.636364 31.246667 
L 58.181818 31.864401 
L 57.869958 32 
L 56.727273 32.477762 
L 55.272727 33.109022 
L 54.500529 33.454545 
L 53.818182 33.750753 
L 52.363636 34.39581 
L 51.247432 34.909091 
L 50.909091 35.061923 
L 49.454545 35.725944 
L 48.114116 36.363636 
L 48 36.417801 
L 46.545455 37.111125 
L 45.126601 37.818182 
L 45.090909 37.836245 
L 43.636364 38.574196 
L 42.318202 39.272727 
L 42.181818 39.34752 
L 40.727273 40.150072 
L 39.717963 40.727273 
L 39.272727 40.995768 
L 37.818182 41.886994 
L 37.346109 42.181818 
L 36.363636 42.840413 
L 35.202665 43.636364 
L 34.909091 43.856936 
L 33.454545 44.956162 
L 33.276922 45.090909 
L 32 46.167748 
L 31.552067 46.545455 
L 30.545455 47.507488 
L 30.023417 48 
L 29.090909 49.017322 
L 28.679641 49.454545 
L 27.636364 50.76519 
L 27.517283 50.909091 
L 26.528124 52.363636 
L 26.181818 53.018404 
L 25.730324 53.818182 
L 25.143598 55.272727 
L 24.802762 56.727273 
L 24.756891 58.181818 
L 25.096247 59.636364 
L 25.9776 61.090909 
L 26.181818 61.29377 
L 27.636364 62.491503 
L 27.716215 62.545455 
L 29.090909 63.227357 
L 30.545455 63.775875 
L 31.30807 64 
z
M 40.823578 59.636364 
L 40.727273 59.612208 
L 39.272727 59.141015 
L 37.818182 58.490893 
L 37.270337 58.181818 
L 36.363636 57.414506 
L 35.715138 56.727273 
L 35.035103 55.272727 
L 34.909091 53.848607 
L 34.906687 53.818182 
L 34.909091 53.806324 
L 35.181273 52.363636 
L 35.780108 50.909091 
L 36.363636 49.963948 
L 36.664444 49.454545 
L 37.812534 48 
L 37.818182 47.994243 
L 39.21337 46.545455 
L 39.272727 46.49367 
L 40.727273 45.214973 
L 40.867139 45.090909 
L 42.181818 44.08801 
L 42.774855 43.636364 
L 43.636364 43.054438 
L 44.942562 42.181818 
L 45.090909 42.091461 
L 46.545455 41.212827 
L 47.360847 40.727273 
L 48 40.372792 
L 49.454545 39.578951 
L 50.022194 39.272727 
L 50.909091 38.817974 
L 52.363636 38.086606 
L 52.903745 37.818182 
L 53.818182 37.37821 
L 55.272727 36.69266 
L 55.981023 36.363636 
L 56.727273 36.022752 
L 58.181818 35.372125 
L 59.238447 34.909091 
L 59.636364 34.735505 
L 61.090909 34.114408 
L 62.545455 33.511447 
L 62.68522 33.454545 
L 64 32.920052 
L 65.454545 32.350368 
L 66.377401 32 
L 66.909091 31.79729 
L 68.363636 31.263903 
L 69.818182 30.75465 
L 70.44004 30.545455 
L 71.272727 30.264519 
L 72.727273 29.799385 
L 74.181818 29.36012 
L 75.123111 29.090909 
L 75.636364 28.94356 
L 77.090909 28.552385 
L 78.545455 28.188198 
L 80 27.849106 
L 80.983499 27.636364 
L 81.454545 27.533899 
L 82.909091 27.245159 
L 84.363636 26.983045 
L 85.818182 26.746874 
L 87.272727 26.53649 
L 88.727273 26.352285 
L 90.181818 26.195255 
L 90.338997 26.181818 
L 91.636364 26.070168 
L 93.090909 25.977599 
L 94.545455 25.919831 
L 96 25.900356 
L 97.454545 25.923794 
L 98.909091 25.99615 
L 100.363636 26.125138 
L 100.804876 26.181818 
L 101.818182 26.334182 
L 103.272727 26.641052 
L 104.727273 27.06342 
L 106.181818 27.63142 
L 106.19242 27.636364 
L 107.636364 28.572129 
L 108.265556 29.090909 
L 109.090909 30.252572 
L 109.267312 30.545455 
L 109.630913 32 
L 109.548283 33.454545 
L 109.110343 34.909091 
L 109.090909 34.945831 
L 108.371326 36.363636 
L 107.636364 37.413123 
L 107.360781 37.818182 
L 106.181818 39.177297 
L 106.100488 39.272727 
L 104.727273 40.609394 
L 104.607087 40.727273 
L 103.272727 41.861503 
L 102.895286 42.181818 
L 101.818182 43.003243 
L 100.979405 43.636364 
L 100.363636 44.067264 
L 98.909091 45.066483 
L 98.873237 45.090909 
L 97.454545 46.006413 
L 96.597107 46.545455 
L 96 46.909748 
L 94.545455 47.771241 
L 94.150111 48 
L 93.090909 48.603214 
L 91.636364 49.39448 
L 91.523357 49.454545 
L 90.181818 50.163241 
L 88.727273 50.886085 
L 88.679697 50.909091 
L 87.272727 51.589474 
L 85.818182 52.243776 
L 85.541396 52.363636 
L 84.363636 52.875731 
L 82.909091 53.463302 
L 81.976729 53.818182 
L 81.454545 54.01852 
L 80 54.545367 
L 78.545455 55.032726 
L 77.790605 55.272727 
L 77.090909 55.496666 
L 75.636364 55.935345 
L 74.181818 56.343794 
L 72.729337 56.727273 
L 72.727273 56.727824 
L 71.272727 57.100532 
L 69.818182 57.448818 
L 68.363636 57.776469 
L 66.909091 58.086317 
L 66.437553 58.181818 
L 65.454545 58.38369 
L 64 58.663488 
L 62.545455 58.924631 
L 61.090909 59.167925 
L 59.636364 59.393613 
L 58.181818 59.601421 
L 57.907954 59.636364 
L 56.727273 59.789956 
L 55.272727 59.955584 
L 53.818182 60.096762 
L 52.363636 60.211505 
L 50.909091 60.29712 
L 49.454545 60.350078 
L 48 60.365832 
L 46.545455 60.338558 
L 45.090909 60.260815 
L 43.636364 60.123082 
L 42.181818 59.913125 
z
" clip-path="url(#p3d4f82c1d5)" style="fill: #069d9d"/>
   </g>
   <g id="PathCollection_4">
    <path d="M 77.090909 126.760738 
L 78.545455 126.943385 
L 80 126.950586 
L 81.454545 126.797395 
L 82.655728 126.545455 
L 82.909091 126.495831 
L 84.363636 126.0696 
L 85.818182 125.503369 
L 86.66736 125.090909 
L 87.272727 124.805312 
L 88.727273 123.978982 
L 89.243678 123.636364 
L 90.181818 123.016407 
L 91.277517 122.181818 
L 91.636364 121.905689 
L 92.993559 120.727273 
L 93.090909 120.640901 
L 94.48503 119.272727 
L 94.545455 119.211583 
L 95.813638 117.818182 
L 96 117.605527 
L 97.019701 116.363636 
L 97.454545 115.810256 
L 98.128633 114.909091 
L 98.909091 113.812393 
L 99.155088 113.454545 
L 100.11041 112 
L 100.363636 111.593758 
L 101.004607 110.545455 
L 101.818182 109.114595 
L 101.831558 109.090909 
L 102.606187 107.636364 
L 103.272727 106.255966 
L 103.308754 106.181818 
L 103.95534 104.727273 
L 104.523748 103.272727 
L 104.727273 102.674314 
L 105.024361 101.818182 
L 105.449276 100.363636 
L 105.792565 98.909091 
L 106.055866 97.454545 
L 106.181818 96.462861 
L 106.242822 96 
L 106.354436 94.545455 
L 106.389248 93.090909 
L 106.350137 91.636364 
L 106.239559 90.181818 
L 106.181818 89.707204 
L 106.060709 88.727273 
L 105.812447 87.272727 
L 105.490948 85.818182 
L 105.090098 84.363636 
L 104.727273 83.272901 
L 104.596276 82.909091 
L 103.980586 81.454545 
L 103.272727 80.091382 
L 103.218432 80 
L 102.210118 78.545455 
L 101.818182 78.069569 
L 100.824218 77.090909 
L 100.363636 76.699451 
L 98.909091 75.762482 
L 98.635327 75.636364 
L 97.454545 75.142737 
L 96 74.764078 
L 94.545455 74.5843 
L 93.090909 74.574743 
L 91.636364 74.714997 
L 90.181818 74.991202 
L 88.727273 75.394906 
L 88.062649 75.636364 
L 87.272727 75.915086 
L 85.818182 76.544593 
L 84.749632 77.090909 
L 84.363636 77.286386 
L 82.909091 78.132462 
L 82.278682 78.545455 
L 81.454545 79.092811 
L 80.227554 80 
L 80 80.173991 
L 78.545455 81.393956 
L 78.478341 81.454545 
L 77.090909 82.788015 
L 76.973147 82.909091 
L 75.671894 84.363636 
L 75.636364 84.40716 
L 74.5491 85.818182 
L 74.181818 86.352899 
L 73.577875 87.272727 
L 72.739836 88.727273 
L 72.727273 88.751328 
L 72.003158 90.181818 
L 71.356495 91.636364 
L 71.272727 91.840256 
L 70.766688 93.090909 
L 70.227285 94.545455 
L 69.818182 95.721666 
L 69.721229 96 
L 69.230179 97.454545 
L 68.759976 98.909091 
L 68.363636 100.17899 
L 68.304865 100.363636 
L 67.856455 101.818182 
L 67.433327 103.272727 
L 67.041958 104.727273 
L 66.909091 105.281367 
L 66.685076 106.181818 
L 66.3808 107.636364 
L 66.146204 109.090909 
L 65.994892 110.545455 
L 65.941188 112 
L 65.999724 113.454545 
L 66.185016 114.909091 
L 66.511023 116.363636 
L 66.909091 117.581368 
L 66.991736 117.818182 
L 67.648065 119.272727 
L 68.363636 120.522697 
L 68.494552 120.727273 
L 69.582198 122.181818 
L 69.818182 122.461554 
L 70.986074 123.636364 
L 71.272727 123.901602 
L 72.727273 124.992773 
L 72.89555 125.090909 
L 74.181818 125.815996 
L 75.636364 126.389815 
L 76.249722 126.545455 
z
M 77.211914 120.727273 
L 77.090909 120.690745 
L 75.636364 120.004008 
L 74.557212 119.272727 
L 74.181818 118.979874 
L 73.034685 117.818182 
L 72.727273 117.435325 
L 72.016817 116.363636 
L 71.300847 114.909091 
L 71.272727 114.82943 
L 70.844887 113.454545 
L 70.573273 112 
L 70.458236 110.545455 
L 70.475525 109.090909 
L 70.603021 107.636364 
L 70.821133 106.181818 
L 71.11312 104.727273 
L 71.272727 104.072689 
L 71.467869 103.272727 
L 71.871701 101.818182 
L 72.314129 100.363636 
L 72.727273 99.104536 
L 72.792601 98.909091 
L 73.310309 97.454545 
L 73.862923 96 
L 74.181818 95.214533 
L 74.464311 94.545455 
L 75.124343 93.090909 
L 75.636364 92.057872 
L 75.857829 91.636364 
L 76.691158 90.181818 
L 77.090909 89.548779 
L 77.650884 88.727273 
L 78.545455 87.53742 
L 78.764103 87.272727 
L 80 85.900751 
L 80.083244 85.818182 
L 81.454545 84.552874 
L 81.68861 84.363636 
L 82.909091 83.43079 
L 83.704821 82.909091 
L 84.363636 82.493765 
L 85.818182 81.72664 
L 86.465886 81.454545 
L 87.272727 81.120479 
L 88.727273 80.675024 
L 90.181818 80.39271 
L 91.636364 80.289226 
L 93.090909 80.388237 
L 94.545455 80.723512 
L 96 81.342015 
L 96.182274 81.454545 
L 97.454545 82.349425 
L 98.039128 82.909091 
L 98.909091 83.886776 
L 99.250008 84.363636 
L 100.122939 85.818182 
L 100.363636 86.305502 
L 100.777761 87.272727 
L 101.27556 88.727273 
L 101.650464 90.181818 
L 101.818182 91.100814 
L 101.908688 91.636364 
L 102.058878 93.090909 
L 102.110539 94.545455 
L 102.065291 96 
L 101.924222 97.454545 
L 101.818182 98.104637 
L 101.68658 98.909091 
L 101.354633 100.363636 
L 100.932312 101.818182 
L 100.421329 103.272727 
L 100.363636 103.413822 
L 99.817985 104.727273 
L 99.13294 106.181818 
L 98.909091 106.610827 
L 98.358408 107.636364 
L 97.504305 109.090909 
L 97.454545 109.170013 
L 96.551598 110.545455 
L 96 111.332238 
L 95.504018 112 
L 94.545455 113.220169 
L 94.347073 113.454545 
L 93.090909 114.869063 
L 93.05187 114.909091 
L 91.636364 116.302637 
L 91.566795 116.363636 
L 90.181818 117.538484 
L 89.801878 117.818182 
L 88.727273 118.590119 
L 87.597668 119.272727 
L 87.272727 119.466327 
L 85.818182 120.170988 
L 84.363636 120.709226 
L 84.292147 120.727273 
L 82.909091 121.079174 
L 81.454545 121.275116 
L 80 121.287718 
L 78.545455 121.101056 
z
" clip-path="url(#p3d4f82c1d5)" style="fill: #068b8b"/>
    <path d="M 42.181818 59.913125 
L 43.636364 60.123082 
L 45.090909 60.260815 
L 46.545455 60.338558 
L 48 60.365832 
L 49.454545 60.350078 
L 50.909091 60.29712 
L 52.363636 60.211505 
L 53.818182 60.096762 
L 55.272727 59.955584 
L 56.727273 59.789956 
L 57.907954 59.636364 
L 58.181818 59.601421 
L 59.636364 59.393613 
L 61.090909 59.167925 
L 62.545455 58.924631 
L 64 58.663488 
L 65.454545 58.38369 
L 66.437553 58.181818 
L 66.909091 58.086317 
L 68.363636 57.776469 
L 69.818182 57.448818 
L 71.272727 57.100532 
L 72.727273 56.727824 
L 72.729337 56.727273 
L 74.181818 56.343794 
L 75.636364 55.935345 
L 77.090909 55.496666 
L 77.790605 55.272727 
L 78.545455 55.032726 
L 80 54.545367 
L 81.454545 54.01852 
L 81.976729 53.818182 
L 82.909091 53.463302 
L 84.363636 52.875731 
L 85.541396 52.363636 
L 85.818182 52.243776 
L 87.272727 51.589474 
L 88.679697 50.909091 
L 88.727273 50.886085 
L 90.181818 50.163241 
L 91.523357 49.454545 
L 91.636364 49.39448 
L 93.090909 48.603214 
L 94.150111 48 
L 94.545455 47.771241 
L 96 46.909748 
L 96.597107 46.545455 
L 97.454545 46.006413 
L 98.873237 45.090909 
L 98.909091 45.066483 
L 100.363636 44.067264 
L 100.979405 43.636364 
L 101.818182 43.003243 
L 102.895286 42.181818 
L 103.272727 41.861503 
L 104.607087 40.727273 
L 104.727273 40.609394 
L 106.100488 39.272727 
L 106.181818 39.177297 
L 107.360781 37.818182 
L 107.636364 37.413123 
L 108.371326 36.363636 
L 109.090909 34.945831 
L 109.110343 34.909091 
L 109.548283 33.454545 
L 109.630913 32 
L 109.267312 30.545455 
L 109.090909 30.252572 
L 108.265556 29.090909 
L 107.636364 28.572129 
L 106.19242 27.636364 
L 106.181818 27.63142 
L 104.727273 27.06342 
L 103.272727 26.641052 
L 101.818182 26.334182 
L 100.804876 26.181818 
L 100.363636 26.125138 
L 98.909091 25.99615 
L 97.454545 25.923794 
L 96 25.900356 
L 94.545455 25.919831 
L 93.090909 25.977599 
L 91.636364 26.070168 
L 90.338997 26.181818 
L 90.181818 26.195255 
L 88.727273 26.352285 
L 87.272727 26.53649 
L 85.818182 26.746874 
L 84.363636 26.983045 
L 82.909091 27.245159 
L 81.454545 27.533899 
L 80.983499 27.636364 
L 80 27.849106 
L 78.545455 28.188198 
L 77.090909 28.552385 
L 75.636364 28.94356 
L 75.123111 29.090909 
L 74.181818 29.36012 
L 72.727273 29.799385 
L 71.272727 30.264519 
L 70.44004 30.545455 
L 69.818182 30.75465 
L 68.363636 31.263903 
L 66.909091 31.79729 
L 66.377401 32 
L 65.454545 32.350368 
L 64 32.920052 
L 62.68522 33.454545 
L 62.545455 33.511447 
L 61.090909 34.114408 
L 59.636364 34.735505 
L 59.238447 34.909091 
L 58.181818 35.372125 
L 56.727273 36.022752 
L 55.981023 36.363636 
L 55.272727 36.69266 
L 53.818182 37.37821 
L 52.903745 37.818182 
L 52.363636 38.086606 
L 50.909091 38.817974 
L 50.022194 39.272727 
L 49.454545 39.578951 
L 48 40.372792 
L 47.360847 40.727273 
L 46.545455 41.212827 
L 45.090909 42.091461 
L 44.942562 42.181818 
L 43.636364 43.054438 
L 42.774855 43.636364 
L 42.181818 44.08801 
L 40.867139 45.090909 
L 40.727273 45.214973 
L 39.272727 46.49367 
L 39.21337 46.545455 
L 37.818182 47.994243 
L 37.812534 48 
L 36.664444 49.454545 
L 36.363636 49.963948 
L 35.780108 50.909091 
L 35.181273 52.363636 
L 34.909091 53.806324 
L 34.906687 53.818182 
L 34.909091 53.848607 
L 35.035103 55.272727 
L 35.715138 56.727273 
L 36.363636 57.414506 
L 37.270337 58.181818 
L 37.818182 58.490893 
L 39.272727 59.141015 
L 40.727273 59.612208 
L 40.823578 59.636364 
z
M 46.968002 55.272727 
L 46.545455 55.072328 
L 45.090909 54.133296 
L 44.71811 53.818182 
L 43.896443 52.363636 
L 43.822793 50.909091 
L 44.27243 49.454545 
L 45.090909 48.070645 
L 45.131053 48 
L 46.360425 46.545455 
L 46.545455 46.376036 
L 47.925924 45.090909 
L 48 45.034188 
L 49.454545 43.917683 
L 49.817553 43.636364 
L 50.909091 42.9161 
L 52.017938 42.181818 
L 52.363636 41.97923 
L 53.818182 41.133524 
L 54.517805 40.727273 
L 55.272727 40.32932 
L 56.727273 39.569046 
L 57.297392 39.272727 
L 58.181818 38.846219 
L 59.636364 38.152511 
L 60.34312 37.818182 
L 61.090909 37.484092 
L 62.545455 36.845131 
L 63.65259 36.363636 
L 64 36.218992 
L 65.454545 35.629198 
L 66.909091 35.048949 
L 67.268984 34.909091 
L 68.363636 34.500757 
L 69.818182 33.975604 
L 71.272727 33.464275 
L 71.301737 33.454545 
L 72.727273 32.995869 
L 74.181818 32.549587 
L 75.636364 32.123844 
L 76.088494 32 
L 77.090909 31.736751 
L 78.545455 31.384373 
L 80 31.060043 
L 81.454545 30.76452 
L 82.66305 30.545455 
L 82.909091 30.502854 
L 84.363636 30.291321 
L 85.818182 30.1176 
L 87.272727 29.984855 
L 88.727273 29.897456 
L 90.181818 29.86125 
L 91.636364 29.883951 
L 93.090909 29.975664 
L 94.545455 30.149626 
L 96 30.423246 
L 96.474536 30.545455 
L 97.454545 30.894556 
L 98.909091 31.622626 
L 99.482707 32 
L 100.363636 33.07172 
L 100.614675 33.454545 
L 100.879871 34.909091 
L 100.586761 36.363636 
L 100.363636 36.795866 
L 99.85423 37.818182 
L 98.909091 39.075232 
L 98.764431 39.272727 
L 97.454545 40.622476 
L 97.354665 40.727273 
L 96 41.885696 
L 95.657372 42.181818 
L 94.545455 43.007201 
L 93.700558 43.636364 
L 93.090909 44.041713 
L 91.636364 45.003101 
L 91.502746 45.090909 
L 90.181818 45.882589 
L 89.064021 46.545455 
L 88.727273 46.73211 
L 87.272727 47.521097 
L 86.373864 48 
L 85.818182 48.279777 
L 84.363636 48.990894 
L 83.390018 49.454545 
L 82.909091 49.672635 
L 81.454545 50.30817 
L 80.02742 50.909091 
L 80 50.920154 
L 78.545455 51.483002 
L 77.090909 52.01877 
L 76.113876 52.363636 
L 75.636364 52.524986 
L 74.181818 52.990411 
L 72.727273 53.430235 
L 71.375394 53.818182 
L 71.272727 53.846484 
L 69.818182 54.221272 
L 68.363636 54.570248 
L 66.909091 54.89503 
L 65.454545 55.196422 
L 65.048077 55.272727 
L 64 55.461448 
L 62.545455 55.693987 
L 61.090909 55.897152 
L 59.636364 56.069033 
L 58.181818 56.20668 
L 56.727273 56.305934 
L 55.272727 56.361153 
L 53.818182 56.364833 
L 52.363636 56.307046 
L 50.909091 56.174634 
L 49.454545 55.950036 
L 48 55.609543 
z
" clip-path="url(#p3d4f82c1d5)" style="fill: #068b8b"/>
   </g>
   <g id="PathCollection_5">
    <path d="M 78.545455 121.101056 
L 80 121.287718 
L 81.454545 121.275116 
L 82.909091 121.079174 
L 84.292147 120.727273 
L 84.363636 120.709226 
L 85.818182 120.170988 
L 87.272727 119.466327 
L 87.597668 119.272727 
L 88.727273 118.590119 
L 89.801878 117.818182 
L 90.181818 117.538484 
L 91.566795 116.363636 
L 91.636364 116.302637 
L 93.05187 114.909091 
L 93.090909 114.869063 
L 94.347073 113.454545 
L 94.545455 113.220169 
L 95.504018 112 
L 96 111.332238 
L 96.551598 110.545455 
L 97.454545 109.170013 
L 97.504305 109.090909 
L 98.358408 107.636364 
L 98.909091 106.610827 
L 99.13294 106.181818 
L 99.817985 104.727273 
L 100.363636 103.413822 
L 100.421329 103.272727 
L 100.932312 101.818182 
L 101.354633 100.363636 
L 101.68658 98.909091 
L 101.818182 98.104637 
L 101.924222 97.454545 
L 102.065291 96 
L 102.110539 94.545455 
L 102.058878 93.090909 
L 101.908688 91.636364 
L 101.818182 91.100814 
L 101.650464 90.181818 
L 101.27556 88.727273 
L 100.777761 87.272727 
L 100.363636 86.305502 
L 100.122939 85.818182 
L 99.250008 84.363636 
L 98.909091 83.886776 
L 98.039128 82.909091 
L 97.454545 82.349425 
L 96.182274 81.454545 
L 96 81.342015 
L 94.545455 80.723512 
L 93.090909 80.388237 
L 91.636364 80.289226 
L 90.181818 80.39271 
L 88.727273 80.675024 
L 87.272727 81.120479 
L 86.465886 81.454545 
L 85.818182 81.72664 
L 84.363636 82.493765 
L 83.704821 82.909091 
L 82.909091 83.43079 
L 81.68861 84.363636 
L 81.454545 84.552874 
L 80.083244 85.818182 
L 80 85.900751 
L 78.764103 87.272727 
L 78.545455 87.53742 
L 77.650884 88.727273 
L 77.090909 89.548779 
L 76.691158 90.181818 
L 75.857829 91.636364 
L 75.636364 92.057872 
L 75.124343 93.090909 
L 74.464311 94.545455 
L 74.181818 95.214533 
L 73.862923 96 
L 73.310309 97.454545 
L 72.792601 98.909091 
L 72.727273 99.104536 
L 72.314129 100.363636 
L 71.871701 101.818182 
L 71.467869 103.272727 
L 71.272727 104.072689 
L 71.11312 104.727273 
L 70.821133 106.181818 
L 70.603021 107.636364 
L 70.475525 109.090909 
L 70.458236 110.545455 
L 70.573273 112 
L 70.844887 113.454545 
L 71.272727 114.82943 
L 71.300847 114.909091 
L 72.016817 116.363636 
L 72.727273 117.435325 
L 73.034685 117.818182 
L 74.181818 118.979874 
L 74.557212 119.272727 
L 75.636364 120.004008 
L 77.090909 120.690745 
L 77.211914 120.727273 
z
M 78.854382 114.909091 
L 78.545455 114.755396 
L 77.090909 113.56245 
L 76.997659 113.454545 
L 76.066501 112 
L 75.636364 110.937852 
L 75.509592 110.545455 
L 75.245069 109.090909 
L 75.165658 107.636364 
L 75.233463 106.181818 
L 75.418198 104.727273 
L 75.636364 103.595737 
L 75.701793 103.272727 
L 76.083743 101.818182 
L 76.529763 100.363636 
L 77.032959 98.909091 
L 77.090909 98.759261 
L 77.632665 97.454545 
L 78.292368 96 
L 78.545455 95.489851 
L 79.060823 94.545455 
L 79.926478 93.090909 
L 80 92.977537 
L 80.981961 91.636364 
L 81.454545 91.043213 
L 82.252636 90.181818 
L 82.909091 89.525972 
L 83.872557 88.727273 
L 84.363636 88.346382 
L 85.818182 87.454194 
L 86.227982 87.272727 
L 87.272727 86.830939 
L 88.727273 86.457469 
L 90.181818 86.344248 
L 91.636364 86.526621 
L 93.090909 87.056645 
L 93.440989 87.272727 
L 94.545455 88.083281 
L 95.148482 88.727273 
L 96 89.871868 
L 96.178299 90.181818 
L 96.826622 91.636364 
L 97.270703 93.090909 
L 97.454545 94.09486 
L 97.525199 94.545455 
L 97.61508 96 
L 97.570189 97.454545 
L 97.454545 98.430192 
L 97.394596 98.909091 
L 97.083854 100.363636 
L 96.658898 101.818182 
L 96.128168 103.272727 
L 96 103.565552 
L 95.458756 104.727273 
L 94.687992 106.181818 
L 94.545455 106.421768 
L 93.766296 107.636364 
L 93.090909 108.602238 
L 92.714693 109.090909 
L 91.636364 110.393516 
L 91.49466 110.545455 
L 90.181818 111.868882 
L 90.03106 112 
L 88.727273 113.075804 
L 88.175398 113.454545 
L 87.272727 114.047191 
L 85.818182 114.799671 
L 85.51678 114.909091 
L 84.363636 115.313124 
L 82.909091 115.596345 
L 81.454545 115.630025 
L 80 115.374823 
z
" clip-path="url(#p3d4f82c1d5)" style="fill: #057b7b"/>
    <path d="M 48 55.609543 
L 49.454545 55.950036 
L 50.909091 56.174634 
L 52.363636 56.307046 
L 53.818182 56.364833 
L 55.272727 56.361153 
L 56.727273 56.305934 
L 58.181818 56.20668 
L 59.636364 56.069033 
L 61.090909 55.897152 
L 62.545455 55.693987 
L 64 55.461448 
L 65.048077 55.272727 
L 65.454545 55.196422 
L 66.909091 54.89503 
L 68.363636 54.570248 
L 69.818182 54.221272 
L 71.272727 53.846484 
L 71.375394 53.818182 
L 72.727273 53.430235 
L 74.181818 52.990411 
L 75.636364 52.524986 
L 76.113876 52.363636 
L 77.090909 52.01877 
L 78.545455 51.483002 
L 80 50.920154 
L 80.02742 50.909091 
L 81.454545 50.30817 
L 82.909091 49.672635 
L 83.390018 49.454545 
L 84.363636 48.990894 
L 85.818182 48.279777 
L 86.373864 48 
L 87.272727 47.521097 
L 88.727273 46.73211 
L 89.064021 46.545455 
L 90.181818 45.882589 
L 91.502746 45.090909 
L 91.636364 45.003101 
L 93.090909 44.041713 
L 93.700558 43.636364 
L 94.545455 43.007201 
L 95.657372 42.181818 
L 96 41.885696 
L 97.354665 40.727273 
L 97.454545 40.622476 
L 98.764431 39.272727 
L 98.909091 39.075232 
L 99.85423 37.818182 
L 100.363636 36.795866 
L 100.586761 36.363636 
L 100.879871 34.909091 
L 100.614675 33.454545 
L 100.363636 33.07172 
L 99.482707 32 
L 98.909091 31.622626 
L 97.454545 30.894556 
L 96.474536 30.545455 
L 96 30.423246 
L 94.545455 30.149626 
L 93.090909 29.975664 
L 91.636364 29.883951 
L 90.181818 29.86125 
L 88.727273 29.897456 
L 87.272727 29.984855 
L 85.818182 30.1176 
L 84.363636 30.291321 
L 82.909091 30.502854 
L 82.66305 30.545455 
L 81.454545 30.76452 
L 80 31.060043 
L 78.545455 31.384373 
L 77.090909 31.736751 
L 76.088494 32 
L 75.636364 32.123844 
L 74.181818 32.549587 
L 72.727273 32.995869 
L 71.301737 33.454545 
L 71.272727 33.464275 
L 69.818182 33.975604 
L 68.363636 34.500757 
L 67.268984 34.909091 
L 66.909091 35.048949 
L 65.454545 35.629198 
L 64 36.218992 
L 63.65259 36.363636 
L 62.545455 36.845131 
L 61.090909 37.484092 
L 60.34312 37.818182 
L 59.636364 38.152511 
L 58.181818 38.846219 
L 57.297392 39.272727 
L 56.727273 39.569046 
L 55.272727 40.32932 
L 54.517805 40.727273 
L 53.818182 41.133524 
L 52.363636 41.97923 
L 52.017938 42.181818 
L 50.909091 42.9161 
L 49.817553 43.636364 
L 49.454545 43.917683 
L 48 45.034188 
L 47.925924 45.090909 
L 46.545455 46.376036 
L 46.360425 46.545455 
L 45.131053 48 
L 45.090909 48.070645 
L 44.27243 49.454545 
L 43.822793 50.909091 
L 43.896443 52.363636 
L 44.71811 53.818182 
L 45.090909 54.133296 
L 46.545455 55.072328 
L 46.968002 55.272727 
z
M 54.933879 50.909091 
L 53.818182 49.728241 
L 53.640681 49.454545 
L 53.684561 48 
L 53.818182 47.767758 
L 54.490232 46.545455 
L 55.272727 45.719935 
L 55.846845 45.090909 
L 56.727273 44.404985 
L 57.682954 43.636364 
L 58.181818 43.320352 
L 59.636364 42.387721 
L 59.954563 42.181818 
L 61.090909 41.57452 
L 62.545455 40.777701 
L 62.638847 40.727273 
L 64 40.09827 
L 65.454545 39.413649 
L 65.7596 39.272727 
L 66.909091 38.806145 
L 68.363636 38.219724 
L 69.367344 37.818182 
L 69.818182 37.656665 
L 71.272727 37.162012 
L 72.727273 36.676872 
L 73.704938 36.363636 
L 74.181818 36.226706 
L 75.636364 35.846832 
L 77.090909 35.494741 
L 78.545455 35.174857 
L 79.927218 34.909091 
L 80 34.89675 
L 81.454545 34.713072 
L 82.909091 34.589892 
L 84.363636 34.541052 
L 85.818182 34.58587 
L 87.272727 34.751633 
L 88.014517 34.909091 
L 88.727273 35.172472 
L 90.181818 36.112394 
L 90.441043 36.363636 
L 90.752279 37.818182 
L 90.223288 39.272727 
L 90.181818 39.324117 
L 89.095116 40.727273 
L 88.727273 41.060241 
L 87.530754 42.181818 
L 87.272727 42.370925 
L 85.818182 43.453196 
L 85.577056 43.636364 
L 84.363636 44.38797 
L 83.2575 45.090909 
L 82.909091 45.280327 
L 81.454545 46.059282 
L 80.554751 46.545455 
L 80 46.806631 
L 78.545455 47.474591 
L 77.397884 48 
L 77.090909 48.124192 
L 75.636364 48.683992 
L 74.181818 49.232246 
L 73.56469 49.454545 
L 72.727273 49.720893 
L 71.272727 50.152578 
L 69.818182 50.55954 
L 68.478539 50.909091 
L 68.363636 50.935652 
L 66.909091 51.224546 
L 65.454545 51.47293 
L 64 51.675112 
L 62.545455 51.822668 
L 61.090909 51.903453 
L 59.636364 51.900042 
L 58.181818 51.787244 
L 56.727273 51.527972 
L 55.272727 51.066082 
z
" clip-path="url(#p3d4f82c1d5)" style="fill: #057b7b"/>
   </g>
   <g id="PathCollection_6">
    <path d="M 80 115.374823 
L 81.454545 115.630025 
L 82.909091 115.596345 
L 84.363636 115.313124 
L 85.51678 114.909091 
L 85.818182 114.799671 
L 87.272727 114.047191 
L 88.175398 113.454545 
L 88.727273 113.075804 
L 90.03106 112 
L 90.181818 111.868882 
L 91.49466 110.545455 
L 91.636364 110.393516 
L 92.714693 109.090909 
L 93.090909 108.602238 
L 93.766296 107.636364 
L 94.545455 106.421768 
L 94.687992 106.181818 
L 95.458756 104.727273 
L 96 103.565552 
L 96.128168 103.272727 
L 96.658898 101.818182 
L 97.083854 100.363636 
L 97.394596 98.909091 
L 97.454545 98.430192 
L 97.570189 97.454545 
L 97.61508 96 
L 97.525199 94.545455 
L 97.454545 94.09486 
L 97.270703 93.090909 
L 96.826622 91.636364 
L 96.178299 90.181818 
L 96 89.871868 
L 95.148482 88.727273 
L 94.545455 88.083281 
L 93.440989 87.272727 
L 93.090909 87.056645 
L 91.636364 86.526621 
L 90.181818 86.344248 
L 88.727273 86.457469 
L 87.272727 86.830939 
L 86.227982 87.272727 
L 85.818182 87.454194 
L 84.363636 88.346382 
L 83.872557 88.727273 
L 82.909091 89.525972 
L 82.252636 90.181818 
L 81.454545 91.043213 
L 80.981961 91.636364 
L 80 92.977537 
L 79.926478 93.090909 
L 79.060823 94.545455 
L 78.545455 95.489851 
L 78.292368 96 
L 77.632665 97.454545 
L 77.090909 98.759261 
L 77.032959 98.909091 
L 76.529763 100.363636 
L 76.083743 101.818182 
L 75.701793 103.272727 
L 75.636364 103.595737 
L 75.418198 104.727273 
L 75.233463 106.181818 
L 75.165658 107.636364 
L 75.245069 109.090909 
L 75.509592 110.545455 
L 75.636364 110.937852 
L 76.066501 112 
L 76.997659 113.454545 
L 77.090909 113.56245 
L 78.545455 114.755396 
L 78.854382 114.909091 
z
M 82.263984 106.181818 
L 81.773862 104.727273 
L 81.743362 103.272727 
L 82.00025 101.818182 
L 82.45205 100.363636 
L 82.909091 99.270478 
L 83.102324 98.909091 
L 84.055058 97.454545 
L 84.363636 97.048123 
L 85.464038 96 
L 85.818182 95.700798 
L 87.272727 94.999568 
L 88.727273 94.904309 
L 90.181818 95.675797 
L 90.44046 96 
L 91.087066 97.454545 
L 91.26849 98.909091 
L 91.109736 100.363636 
L 90.698242 101.818182 
L 90.181818 103.047448 
L 90.06212 103.272727 
L 89.067733 104.727273 
L 88.727273 105.151327 
L 87.637982 106.181818 
L 87.272727 106.48787 
L 85.818182 107.269767 
L 84.363636 107.545373 
L 82.909091 106.988234 
z
" clip-path="url(#p3d4f82c1d5)" style="fill: #046a6a"/>
    <path d="M 55.272727 51.066082 
L 56.727273 51.527972 
L 58.181818 51.787244 
L 59.636364 51.900042 
L 61.090909 51.903453 
L 62.545455 51.822668 
L 64 51.675112 
L 65.454545 51.47293 
L 66.909091 51.224546 
L 68.363636 50.935652 
L 68.478539 50.909091 
L 69.818182 50.55954 
L 71.272727 50.152578 
L 72.727273 49.720893 
L 73.56469 49.454545 
L 74.181818 49.232246 
L 75.636364 48.683992 
L 77.090909 48.124192 
L 77.397884 48 
L 78.545455 47.474591 
L 80 46.806631 
L 80.554751 46.545455 
L 81.454545 46.059282 
L 82.909091 45.280327 
L 83.2575 45.090909 
L 84.363636 44.38797 
L 85.577056 43.636364 
L 85.818182 43.453196 
L 87.272727 42.370925 
L 87.530754 42.181818 
L 88.727273 41.060241 
L 89.095116 40.727273 
L 90.181818 39.324117 
L 90.223288 39.272727 
L 90.752279 37.818182 
L 90.441043 36.363636 
L 90.181818 36.112394 
L 88.727273 35.172472 
L 88.014517 34.909091 
L 87.272727 34.751633 
L 85.818182 34.58587 
L 84.363636 34.541052 
L 82.909091 34.589892 
L 81.454545 34.713072 
L 80 34.89675 
L 79.927218 34.909091 
L 78.545455 35.174857 
L 77.090909 35.494741 
L 75.636364 35.846832 
L 74.181818 36.226706 
L 73.704938 36.363636 
L 72.727273 36.676872 
L 71.272727 37.162012 
L 69.818182 37.656665 
L 69.367344 37.818182 
L 68.363636 38.219724 
L 66.909091 38.806145 
L 65.7596 39.272727 
L 65.454545 39.413649 
L 64 40.09827 
L 62.638847 40.727273 
L 62.545455 40.777701 
L 61.090909 41.57452 
L 59.954563 42.181818 
L 59.636364 42.387721 
L 58.181818 43.320352 
L 57.682954 43.636364 
L 56.727273 44.404985 
L 55.846845 45.090909 
L 55.272727 45.719935 
L 54.490232 46.545455 
L 53.818182 47.767758 
L 53.684561 48 
L 53.640681 49.454545 
L 53.818182 49.728241 
L 54.933879 50.909091 
z
" clip-path="url(#p3d4f82c1d5)" style="fill: #046a6a"/>
   </g>
   <g id="PathCollection_7">
    <path d="M 82.909091 106.988234 
L 84.363636 107.545373 
L 85.818182 107.269767 
L 87.272727 106.48787 
L 87.637982 106.181818 
L 88.727273 105.151327 
L 89.067733 104.727273 
L 90.06212 103.272727 
L 90.181818 103.047448 
L 90.698242 101.818182 
L 91.109736 100.363636 
L 91.26849 98.909091 
L 91.087066 97.454545 
L 90.44046 96 
L 90.181818 95.675797 
L 88.727273 94.904309 
L 87.272727 94.999568 
L 85.818182 95.700798 
L 85.464038 96 
L 84.363636 97.048123 
L 84.055058 97.454545 
L 83.102324 98.909091 
L 82.909091 99.270478 
L 82.45205 100.363636 
L 82.00025 101.818182 
L 81.743362 103.272727 
L 81.773862 104.727273 
L 82.263984 106.181818 
z
" clip-path="url(#p3d4f82c1d5)" style="fill: #035a5a"/>
   </g>
   <g id="line2d_1">
    <path d="M 24.162484 95.785392 
L 66.822871 75.50674 
L 76.86709 70.399064 
L 86.148517 65.072816 
L 94.253686 59.268004 
L 100.644929 52.731886 
L 105.269006 45.801377 
L 108.056639 38.827534 
L 109.08693 32.433285 
L 108.317996 27.107653 
L 105.492301 23.269318 
L 100.458095 21.486665 
L 93.715731 21.68896 
L 86.14657 23.677948 
L 78.845041 27.240231 
L 72.62494 32.173558 
L 67.601279 38.221904 
L 63.805215 44.93923 
L 61.133615 51.646696 
L 59.384258 58.016026 
L 58.54301 64.059467 
L 58.833619 70.055214 
L 60.488591 76.478794 
L 63.59435 83.557079 
L 67.95811 91.113079 
L 73.168035 98.523567 
L 78.683011 105.333811 
L 84.024877 111.346599 
L 92.529844 120.240967 
L 95.424269 122.959674 
L 97.739118 124.669403 
L 99.734185 125.510939 
L 101.558332 125.474589 
L 103.273221 124.40971 
L 104.87513 122.091359 
L 106.266264 118.330695 
L 107.192764 113.233082 
L 107.303047 107.323154 
L 106.411865 101.232767 
L 104.640382 95.483668 
L 102.245071 90.294815 
L 99.439084 85.595748 
L 96.366985 81.338653 
L 93.1595 77.493785 
L 86.789045 70.263669 
L 83.785208 66.196281 
L 80.91257 61.407729 
L 78.133928 55.929874 
L 75.472251 50.306498 
L 72.919503 45.332163 
L 70.276128 41.449708 
L 67.303719 38.590866 
L 63.893953 36.512027 
L 60.047435 35.065281 
L 55.87807 34.23697 
L 51.630302 34.074241 
L 47.574755 34.599796 
L 43.881919 35.778867 
L 40.64463 37.54708 
L 37.921077 39.832884 
L 35.711566 42.547884 
L 33.963348 45.576345 
L 32.617059 48.798207 
L 31.640893 52.124911 
L 31.038317 55.4935 
L 30.834602 58.835501 
L 31.053289 62.08549 
L 31.703649 65.222114 
L 32.79299 68.276632 
L 34.353027 71.302736 
L 36.456754 74.357952 
L 39.202534 77.520082 
L 42.647647 80.906553 
L 51.327362 88.748994 
L 56.36222 93.112756 
L 61.814296 97.503272 
L 67.561814 101.635654 
L 73.349989 105.211916 
L 78.782709 108.05768 
L 83.407548 110.08617 
L 86.953468 111.207527 
L 89.512154 111.427924 
L 91.414904 110.868066 
L 92.969124 109.657295 
L 94.367507 107.885454 
L 95.699812 105.627836 
L 96.984198 102.987428 
L 99.361815 97.104792 
L 102.981537 87.621916 
L 106.240922 80.390943 
L 109.970866 72.198602 
L 111.686653 67.774456 
L 113.188923 63.174736 
L 114.468063 58.429502 
L 115.540055 53.618187 
L 116.426429 48.883714 
L 117.754154 40.092228 
L 118.655411 32.601684 
L 118.939771 29.374273 
L 119.068648 26.477367 
L 118.992642 23.932175 
L 118.652652 21.764613 
L 117.981581 19.977846 
L 116.906515 18.554699 
L 115.35041 17.475052 
L 113.228945 16.729009 
L 110.446148 16.326931 
L 106.910159 16.307001 
L 102.600239 16.734689 
L 97.674714 17.687264 
L 92.496234 19.226385 
L 87.513694 21.380463 
L 83.13186 24.134451 
L 79.591493 27.404259 
L 76.919736 31.040867 
L 74.997175 34.893043 
L 73.630961 38.834538 
L 71.772731 46.360827 
L 70.246269 52.55337 
L 68.301569 59.957187 
L 67.895983 62.309122 
L 67.703256 64.776257 
L 67.78788 67.482062 
L 68.21618 70.554362 
L 69.044574 74.093802 
L 70.296429 78.131159 
L 71.92852 82.600506 
L 75.648495 92.099201 
L 77.170835 96.668589 
L 78.132582 100.961946 
L 78.481078 105.027808 
L 78.298445 108.962329 
L 77.723752 112.844735 
L 76.049785 120.351817 
L 74.080183 129.032923 
L 72.739083 135.355182 
L 72.606983 135.584861 
L 72.510627 135.503261 
L 72.437693 134.440115 
L 72.551627 132.148325 
L 73.163684 126.204675 
L 74.727249 113.413366 
L 75.354463 109.727778 
L 76.250682 106.045659 
L 77.530034 102.391426 
L 79.242554 98.772441 
L 81.322466 95.213681 
L 87.67543 85.446663 
L 89.236921 82.550872 
L 90.482152 79.718683 
L 91.481954 76.836963 
L 92.294664 73.806861 
L 92.944423 70.561734 
L 93.415539 67.073851 
L 93.659993 63.347298 
L 93.620585 59.413502 
L 93.26378 55.353076 
L 92.608058 51.325297 
L 91.732703 47.55788 
L 90.754209 44.292194 
L 89.777734 41.703369 
L 88.859563 39.826771 
L 88.007856 38.564058 
L 87.206751 37.765632 
L 86.434858 37.298913 
L 85.6714 37.068572 
L 85.6714 37.068572 
" clip-path="url(#p3d4f82c1d5)" style="fill: none; stroke: #000000; stroke-width: 1.5; stroke-linecap: square"/>
   </g>
   <g id="line2d_2">
    <path d="M 24.162484 95.785392 
" clip-path="url(#p3d4f82c1d5)" style="fill: none; stroke: #000000; stroke-width: 1.5; stroke-linecap: square"/>
    <defs>
     <path id="maada5c2959" d="M 0 2.5 
C 0.663008 2.5 1.29895 2.236584 1.767767 1.767767 
C 2.236584 1.29895 2.5 0.663008 2.5 0 
C 2.5 -0.663008 2.236584 -1.29895 1.767767 -1.767767 
C 1.29895 -2.236584 0.663008 -2.5 0 -2.5 
C -0.663008 -2.5 -1.29895 -2.236584 -1.767767 -1.767767 
C -2.236584 -1.29895 -2.5 -0.663008 -2.5 0 
C -2.5 0.663008 -2.236584 1.29895 -1.767767 1.767767 
C -1.29895 2.236584 -0.663008 2.5 0 2.5 
z
" style="stroke: #000000"/>
    </defs>
    <g clip-path="url(#p3d4f82c1d5)">
     <use xlink:href="#maada5c2959" x="24.162484" y="95.785392" style="stroke: #000000"/>
    </g>
   </g>
  </g>
 </g>
 <defs>
  <clipPath id="p3d4f82c1d5">
   <rect x="0" y="0" width="144" height="144"/>
  </clipPath>
 </defs>
</svg>
